<?xml version="1.0" encoding="utf-8"?>
<!-- Generator: Adobe Illustrator 25.0.0, SVG Export Plug-In . SVG Version: 6.00 Build 0)  -->
<svg version="1.1" xmlns="http://www.w3.org/2000/svg" xmlns:xlink="http://www.w3.org/1999/xlink" x="0px" y="0px"
	 viewBox="0 0 1417.3 850.4" style="enable-background:new 0 0 1417.3 850.4;" xml:space="preserve">
<style type="text/css">
	.st0{display:none;}
	.st1{display:inline;}
	.st2{fill:#E2C7A9;}
	.st3{fill:#FFFFFF;}
	.st4{display:inline;fill:none;}
	.st5{font-family:'GillSansMT-ExtraCondensedBold';}
	.st6{font-size:100px;}
	.st7{fill:#FBB03B;stroke:#000000;stroke-miterlimit:10;}
	.st8{fill:#FBB03B;}
	.st9{fill:#FBB03B;stroke:#000000;stroke-width:10;stroke-miterlimit:10;}
	.st10{fill:#FBB03B;stroke:#000000;stroke-width:6;stroke-miterlimit:10;}
	.st11{fill:none;stroke:#000000;stroke-width:14;stroke-miterlimit:10;}
	.st12{fill:#FBB03B;stroke:#000000;stroke-width:8;stroke-miterlimit:10;}
	.st13{fill:none;stroke:#000000;stroke-width:12;stroke-miterlimit:10;}
	.st14{fill:#FBB03B;stroke:#000000;stroke-width:3;stroke-miterlimit:10;}
	.st15{fill:none;stroke:#030000;stroke-width:4;stroke-miterlimit:10;}
	.st16{fill:none;stroke:#000000;stroke-width:4;stroke-miterlimit:10;}
	.st17{fill:#FBB03B;stroke:#000000;stroke-width:7;stroke-miterlimit:10;}
	.st18{fill:#FFFFFF;stroke:#000000;stroke-width:9;stroke-miterlimit:10;}
</style>
<g id="Calque_4" class="st0">
	
		<image style="display:inline;overflow:visible;" width="826" height="573" xlink:href="../files/aphotoshopillupremiere/in.png"  transform="matrix(1.1957 0 0 1.1957 163.1232 28.349)">
	</image>
	
		<image style="display:inline;overflow:visible;" width="817" height="615" xlink:href="DE4E3E94.jpg"  transform="matrix(1.2386 0 0 1.2616 152.046 74.8732)">
	</image>
</g>
<g id="Calque_6" class="st0">
	<g class="st1">
		<rect x="2.5" y="0" class="st2" width="1417.3" height="850.4"/>
	</g>
	
		<image style="display:inline;overflow:visible;" width="720" height="900" xlink:href="DE4E3E93.jpg"  transform="matrix(0.2589 0 0 0.2589 1529.7063 204.654)">
	</image>
</g>
<g id="Calque_1" class="st0">
	<rect x="160" y="275.8" class="st1" width="46.9" height="190.8"/>
	<rect x="224.8" y="326.4" class="st1" width="46.9" height="91.4"/>
	<rect x="329.1" y="326.4" class="st1" width="46.9" height="91.4"/>
	<path class="st1" d="M224.8,326.4c0-4.7,0.2-8.9,0.6-12.8c2.2-21.5,20.5-37.8,42.1-37.8h23.8v37.8c-18.9,0-19.6,12.8-19.6,12.8
		H224.8z"/>
	<path class="st1" d="M376.1,326.4c0-4.7-0.2-8.9-0.6-12.8c-2.2-21.5-20.5-37.8-42.1-37.8h-23.8v37.8c18.9,0,19.6,12.8,19.6,12.8
		H376.1z"/>
	<rect x="291.4" y="275.8" class="st1" width="18.1" height="37.8"/>
	<path class="st1" d="M224.8,416c0,4.7,0.2,8.9,0.6,12.8c2.2,21.5,20.5,37.8,42.1,37.8h23.8v-37.8c-18.9,0-19.6-12.8-19.6-12.8
		H224.8z"/>
	<rect x="291.4" y="428.9" class="st1" width="236.2" height="37.8"/>
	<path class="st1" d="M527.6,429.1c0,0,23.8-6.1,26.5-26.5c2.6-20.3,14.8-67.7,14.8-10.4v49.3h-41.3V429.1z"/>
	<path class="st1" d="M527.6,466.6c0,0,23.8,6.1,26.5,26.5c2.6,20.3,14.8,67.7,14.8,10.4v-49.3h-41.3V466.6z"/>
	<rect x="527.6" y="441.5" class="st1" width="41.3" height="12.6"/>
	<rect x="394.2" y="325.5" class="st1" width="46.9" height="91.4"/>
	<path class="st1" d="M394.2,326.4c0-4.7,0.2-8.9,0.6-12.8c2.2-21.5,20.5-37.8,42.1-37.8h23.8v37.8c-18.9,0-19.6,12.8-19.6,12.8
		H394.2z"/>
	<rect x="460.8" y="275.8" class="st1" width="18.1" height="37.8"/>
	<path class="st1" d="M544.4,326.4c0-4.7-0.2-8.9-0.6-12.8c-2.2-21.5-20.5-37.8-42.1-37.8h-23.8v37.8c18.9,0,19.6,12.8,19.6,12.8
		H544.4z"/>
	<path class="st1" d="M544.4,347c0,4.7-0.2,8.9-0.6,12.8c-2.2,21.5-20.5,37.8-42.1,37.8h-23.8v-37.8c18.9,0,19.6-12.8,19.6-12.8
		H544.4z"/>
	<rect x="497.4" y="325.5" class="st1" width="46.9" height="21.5"/>
	<polyline class="st1" points="477.8,359.8 457.7,359.8 457.7,397.6 477.8,397.6 	"/>
	<rect x="591.4" y="326.6" class="st1" width="46.9" height="91.4"/>
	<rect x="695.8" y="326.6" class="st1" width="46.9" height="91.4"/>
	<path class="st1" d="M591.4,326.6c0-4.7,0.2-8.9,0.6-12.8c2.2-21.5,20.5-37.8,42.1-37.8H658v37.8c-18.9,0-19.6,12.8-19.6,12.8
		H591.4z"/>
	<path class="st1" d="M742.7,326.6c0-4.7-0.2-8.9-0.6-12.8c-2.2-21.5-20.5-37.8-42.1-37.8h-23.8v37.8c18.9,0,19.6,12.8,19.6,12.8
		H742.7z"/>
	<rect x="658" y="275.9" class="st1" width="18.1" height="37.8"/>
	<path class="st1" d="M591.4,415.9c0,4.7,0.2,8.9,0.6,12.8c2.2,21.5,20.5,37.8,42.1,37.8H658v-37.8c-18.9,0-19.6-12.8-19.6-12.8
		H591.4z"/>
	<path class="st1" d="M742.7,415.9c0,4.7-0.2,8.9-0.6,12.8c-2.2,21.5-20.5,37.8-42.1,37.8h-23.8v-37.8c18.9,0,19.6-12.8,19.6-12.8
		H742.7z"/>
	<rect x="658" y="428.8" class="st1" width="18.1" height="37.8"/>
	<rect x="764.1" y="275.9" class="st1" width="46.9" height="143.1"/>
	<rect x="868.5" y="275.8" class="st1" width="46.9" height="143.2"/>
	<path class="st1" d="M764.1,417c0,4.7,0.2,8.9,0.6,12.8c2.2,21.5,20.5,37.8,42.1,37.8h23.8v-37.8c-18.9,0-19.6-12.8-19.6-12.8
		H764.1z"/>
	<path class="st1" d="M915.4,417c0,4.7-0.2,8.9-0.6,12.8c-2.2,21.5-20.5,37.8-42.1,37.8h-23.8v-37.8c18.9,0,19.6-12.8,19.6-12.8
		H915.4z"/>
	<rect x="830.7" y="429.8" class="st1" width="18.1" height="37.8"/>
	<rect x="937.5" y="326.4" class="st1" width="46.9" height="91.4"/>
	<path class="st1" d="M937.5,326.4c0-4.7,0.2-8.9,0.6-12.8c2.2-21.5,20.5-37.8,42.1-37.8h23.8v37.8c-18.9,0-19.6,12.8-19.6,12.8
		H937.5z"/>
	<rect x="1004" y="275.8" class="st1" width="84.4" height="37.8"/>
	<path class="st1" d="M937.5,415.8c0,4.7,0.2,8.9,0.6,12.8c2.2,21.5,20.5,37.8,42.1,37.8h23.8v-37.8c-18.9,0-19.6-12.8-19.6-12.8
		H937.5z"/>
	<rect x="1004" y="428.6" class="st1" width="84.4" height="37.8"/>
	<rect x="949.5" y="352.3" class="st1" width="138.9" height="37.8"/>
	<rect x="1116.8" y="275.4" class="st1" width="46.9" height="143.2"/>
	<rect x="1129.2" y="317.3" class="st1" width="69.3" height="37.8"/>
	<path class="st1" d="M1163.8,415.8c0,4.7-0.2,8.9-0.6,12.8c-2.2,21.5-20.5,37.8-42.1,37.8h-23.8v-37.8c18.9,0,19.6-12.8,19.6-12.8
		H1163.8z"/>
	<rect x="1088.5" y="428.6" class="st1" width="8.7" height="37.8"/>
	<g class="st1">
		<path d="M464.4,499.3c0,2.2-0.1,4.2-0.3,6c-1.1,10-10,17.7-20.6,17.7h-11.7v-17.6c9.3,0,9.6-6,9.6-6H464.4z"/>
		<path d="M329.1,499.3c0,2.2,0.1,4.2,0.3,6c1.1,10,10,17.7,20.6,17.7h11.7v-17.6c-9.3,0-9.6-6-9.6-6H329.1z"/>
		<rect x="361.8" y="505.2" width="70" height="17.6"/>
		<rect x="441.4" y="466.5" width="23" height="32.7"/>
		<rect x="329.1" y="466.5" width="23" height="32.7"/>
	</g>
</g>
<g id="Calque_2" class="st0">
	<path class="st1" d="M145.1,546.2c-17.2,0-31.2-14-31.2-31.2V324.3c0-17.2,14-31.2,31.2-31.2h46.9c17.2,0,31.2,14,31.2,31.2v190.8
		c0,17.2-14,31.2-31.2,31.2H145.1z"/>
	<path class="st1" d="M209.9,497.5c-17.2,0-31.2-14-31.2-31.2v-1.8c0-17.2,14-31.2,31.2-31.2s31.2,14,31.2,31.2c0,0.4,0,0.9,0,1.3
		c0.1,8.4-3.1,16.4-9,22.4C226.3,494.1,218.3,497.5,209.9,497.5L209.9,497.5z"/>
	<path class="st1" d="M550.4,610.5c-6.6,0-22.7-2.2-31.7-22.7c-1.7-3.8-3.3-8.5-4.8-14.2c-2.3-8.3-4.3-18.2-5.4-26.4
		c-0.4-0.3-0.8-0.5-1.3-0.8h-26.4v1.3c0,3.2-0.2,6.4-0.5,9.4c-2.8,25.9-25,45.4-51.6,45.4h-93.4c-26.6,0-48.8-19.5-51.6-45.4
		c-0.3-3-0.5-6.1-0.5-9.4v-1.3h-6.6c-0.9,0-1.8,0-2.8-0.1h-21.1c-37.8,0-69.2-28.3-73.1-65.8c-0.5-4.4-0.7-9-0.8-13.8
		c0-0.7,0-1.5,0-2.3v-89.6c0-5.6,0.3-10.9,0.8-16c3.9-37.5,35.3-65.8,73.1-65.8h65.8c37.8,0,69.2,28.3,73.1,65.8
		c0.5,5,0.8,10.4,0.8,16v71.4h114.8c0.5-0.3,0.9-0.5,1.3-0.8c1.1-8.2,3.2-18.1,5.4-26.4c1.6-5.7,3.1-10.4,4.8-14.2
		c9-20.5,25.2-22.7,31.7-22.7c4.8,0,28.8,1.6,33.4,32.8c0.9,6.2,1.3,14.4,1.3,25.8v111.3c0,11.3-0.4,19.5-1.3,25.8
		C579.2,608.9,555.2,610.5,550.4,610.5C550.4,610.5,550.4,610.5,550.4,610.5z"/>
	<path class="st1" d="M379.3,496.6c-17.2,0-31.2-14-31.2-31.2v-90.5c0-0.5,0-0.9,0-1.4c0-4.9,0.3-9.8,0.8-14.6
		c3.9-37.5,35.3-65.8,73.1-65.8h64.7c37.8,0,69.2,28.3,73.1,65.8c0.5,4.8,0.8,9.7,0.8,14.6c0,0.5,0,0.9,0,1.4v20.6
		c0,5.5-0.3,10.9-0.8,16c-3.9,37.5-35.3,65.8-73.1,65.8h-31.6c-4.7,11.4-15.8,19.4-28.9,19.4H379.3z"/>
	<path class="st1" d="M379.3,406c-17.2,0-31.2-14-31.2-31.2v-0.9c0-17.2,14-31.2,31.2-31.2c8.4,0,16.5,3.4,22.4,9.5
		c5.8,6,9,14.1,8.8,22.5v0.1C410.5,392.1,396.5,406,379.3,406z"/>
	<path class="st1" d="M529.5,406c-17.2,0-31.2-14-31.2-31.2v-0.1c-0.2-8.4,2.9-16.4,8.7-22.5c5.9-6.1,14-9.5,22.4-9.5
		c17.2,0,31.2,14,31.2,31.2v0.9C560.7,392.1,546.7,406,529.5,406z"/>
	<path class="st1" d="M576.6,497.6c-17.2,0-31.2-14-31.2-31.2v-2.1c0-17.2,14-31.2,31.2-31.2s31.2,14,31.2,31.2c0,0.5,0,1.1,0,1.6
		c0.1,8.3-3.1,16.4-9,22.3C592.9,494.3,584.9,497.6,576.6,497.6L576.6,497.6z"/>
	<path class="st1" d="M619.3,546.2c-37.8,0-69.2-28.3-73.1-65.8c-0.5-4.4-0.7-9-0.8-13.6c0-0.8,0-1.6,0-2.5V375
		c0-5.5,0.3-10.9,0.8-16c3.9-37.5,35.3-65.8,73.1-65.8h65.8c37.8,0,69.2,28.3,73.1,65.8c0.5,5.1,0.8,10.5,0.8,16v89.4
		c0,0.8,0,1.7,0,2.5c-0.1,4.5-0.3,9.1-0.8,13.5c-3.9,37.5-35.3,65.8-73.1,65.8H619.3z"/>
	<path class="st1" d="M727.8,497.6c-8.3,0-16.3-3.3-22.2-9.3c-5.9-5.9-9.1-14-9-22.3c0-0.5,0-1.1,0-1.6c0-17.2,14-31.2,31.2-31.2
		s31.2,14,31.2,31.2v2.1C759,483.7,745.1,497.6,727.8,497.6L727.8,497.6z"/>
	<path class="st1" d="M792,547.2c-37.8,0-69.2-28.3-73.1-65.8c-0.5-4.4-0.7-9-0.8-13.6c0-0.7,0-1.6,0-2.5v-141
		c0-17.2,14-31.2,31.2-31.2h46.9c12.9,0,23.9,7.8,28.7,18.9c4.7-11.2,15.8-19,28.7-19h46.9c17.2,0,31.2,14,31.2,31.2v141.2
		c0,0.9,0,1.7,0,2.5c-0.1,4.5-0.3,9-0.8,13.4c-3.9,37.5-35.3,65.8-73.1,65.8H792z"/>
	<path class="st1" d="M749.3,498.7c-17.2,0-31.2-14-31.2-31.2v-2c0-17.2,14-31.2,31.2-31.2s31.2,14,31.2,31.2c0,0.5,0,1,0,1.5
		c0.1,8.4-3.1,16.4-9,22.4S757.6,498.7,749.3,498.7L749.3,498.7z"/>
	<path class="st1" d="M900.5,498.7c-8.4,0-16.4-3.4-22.2-9.3s-9.1-14-9-22.4c0-0.5,0-1,0-1.6c0-17.2,14-31.2,31.2-31.2
		s31.2,14,31.2,31.2v2C931.7,484.7,917.8,498.7,900.5,498.7L900.5,498.7z"/>
	<path class="st1" d="M922.6,497.5c-17.2,0-31.2-14-31.2-31.2v-2c0-17.2,14-31.2,31.2-31.2s31.2,14,31.2,31.2c0,0.5,0,1.1,0,1.6
		c0.1,8.3-3.1,16.4-9,22.3S931,497.5,922.6,497.5L922.6,497.5z"/>
	<path class="st1" d="M965.3,546c-37.8,0-69.2-28.3-73.1-65.8c-0.5-4.4-0.7-9-0.8-13.6c0-0.8,0-1.6,0-2.5v-89.4
		c0-5.5,0.3-10.9,0.8-16c3.9-37.5,35.3-65.8,73.1-65.8h108.3c4.9,0,9.6,1.2,13.8,3.2c4.4-2.3,9.3-3.6,14.6-3.6h46.9
		c17.2,0,31.2,14,31.2,31.2v10.8h3.4c17.2,0,31.2,14,31.2,31.2v37.8c0,17.2-14,31.2-31.2,31.2h-3.4v29.5c0,1.2,0,2.4,0,3.5
		c-0.1,4.2-0.3,8.4-0.8,12.5c-3.9,37.5-35.3,65.8-73.1,65.8H965.3z"/>
	<path class="st1" d="M211.9,459.6L211.9,459.6l0-1.8C211.9,458.4,211.9,459,211.9,459.6z"/>
	<path class="st1" d="M381.2,367.2c0,0.3,0,0.6,0,0.9L381.2,367.2L381.2,367.2z"/>
	<path class="st1" d="M531.4,367.2v0.9C531.4,367.9,531.4,367.5,531.4,367.2L531.4,367.2z"/>
	<path class="st1" d="M578.5,459.8L578.5,459.8l0-2C578.5,458.4,578.5,459.1,578.5,459.8z"/>
	<path class="st1" d="M729.8,457.7v2h0C729.8,459.1,729.8,458.4,729.8,457.7z"/>
	<path class="st1" d="M751.2,460.8L751.2,460.8l0-2C751.2,459.4,751.2,460.1,751.2,460.8z"/>
	<path class="st1" d="M902.5,458.7v2h0C902.5,460.1,902.5,459.4,902.5,458.7z"/>
	<path class="st1" d="M924.5,459.6L924.5,459.6l0-2C924.5,458.2,924.5,458.9,924.5,459.6z"/>
	<g class="st1">
		<rect x="147.1" y="323.4" class="st3" width="46.9" height="190.8"/>
		<path class="st3" d="M555.9,439.8v111.3c0,57.3-12.2,9.9-14.8-10.4c-2.6-20.3-26.5-26.5-26.5-26.5v0.1h-63.1v32.5
			c0,2.2-0.1,4.2-0.3,6c-1.1,10-10,17.7-20.6,17.7h-81.7v-17.6h70c9.2,0,9.6-6,9.6-6v-32.5h-89.3v32.5c0,0,0.4,6,9.6,6v17.6h-11.7
			c-10.6,0-19.6-7.6-20.7-17.7c-0.2-1.8-0.3-3.8-0.3-6v-32.5h-37.8v-0.1h-23.8c-21.6,0-39.9-16.3-42.1-37.8c-0.3-3.4-0.6-7-0.6-11
			c0-0.6,0-1.2,0-1.8V374c0-4.7,0.2-8.9,0.6-12.8c2.2-21.5,20.5-37.8,42.1-37.8h65.8c21.6,0,39.9,16.3,42.1,37.8
			c0.4,3.9,0.6,8.1,0.6,12.8v91.4h-46.9V374c0,0-0.8-12.8-19.6-12.8h-18.1c-18.9,0-19.7,12.8-19.7,12.8v89.6c0,0,0.8,12.8,19.7,12.8
			v0.1h236.2v0.1c0,0,23.9-6.1,26.5-26.5S555.9,382.5,555.9,439.8z"/>
		<path class="st3" d="M531.4,374v20.6c0,4.7-0.2,8.9-0.6,12.8c-2.2,21.5-20.5,37.8-42.1,37.8h-43.9v-37.8h20.1
			c18.9,0,19.6-12.8,19.6-12.8V374c0,0-0.8-12.8-19.6-12.8h-17c-18.9,0-19.7,12.8-19.7,12.8v90.5h-46.9V374c0-0.3,0-0.6,0-0.9
			c0-4.3,0.2-8.3,0.6-11.9c2.2-21.5,20.5-37.8,42.1-37.8h64.7c21.6,0,39.9,16.3,42.1,37.8c0.4,3.6,0.6,7.6,0.6,11.9
			C531.4,373.4,531.4,373.7,531.4,374z"/>
		<path class="st3" d="M729.1,361.4c-2.2-21.5-20.5-37.8-42.1-37.8h-65.8c-21.6,0-39.9,16.3-42.1,37.8c-0.4,3.9-0.6,8.1-0.6,12.8
			v89.4c0,0.7,0,1.4,0,2c0,3.9,0.3,7.4,0.6,10.7c2.2,21.5,20.5,37.8,42.1,37.8H687c21.6,0,39.9-16.3,42.1-37.8
			c0.3-3.3,0.6-6.9,0.6-10.7c0-0.7,0-1.4,0-2v-89.4C729.8,369.5,729.5,365.3,729.1,361.4z M663.2,476.4h-18.1
			c-18.9,0-19.6-12.8-19.6-12.8v-89.4c0,0,0.8-12.8,19.6-12.8h18.1c18.9,0,19.7,12.8,19.7,12.8v89.4
			C682.8,463.6,682.1,476.4,663.2,476.4z"/>
		<path class="st3" d="M902.5,323.4v141.2c0,0.7,0,1.4,0,2c0,3.9-0.3,7.4-0.6,10.7c-2.2,21.5-20.5,37.8-42.1,37.8h-65.8
			c-21.6,0-39.9-16.3-42.1-37.8c-0.3-3.3-0.6-6.9-0.6-10.7c0-0.7,0-1.4,0-2v-141h46.9v141c0,0,0.8,12.8,19.6,12.8h18.1
			c18.9,0,19.7-12.8,19.7-12.8V323.4H902.5z"/>
		<path class="st3" d="M1185.5,365v37.8h-34.6v60.6c0,1,0,1.9,0,2.8c-0.1,3.6-0.3,6.9-0.6,10c-2.2,21.5-20.5,37.8-42.1,37.8H967.2
			c-21.6,0-39.9-16.3-42.1-37.8c-0.3-3.3-0.6-6.9-0.6-10.7c0-0.7,0-1.4,0-2V374c0-4.7,0.2-8.9,0.6-12.8
			c2.2-21.5,20.5-37.8,42.1-37.8h108.3v37.8h-84.4c-18.9,0-19.7,12.8-19.7,12.8V400h104.1v37.8H971.4v25.7c0,0,0.8,12.8,19.7,12.8
			h93.1c18.9,0,19.7-12.8,19.7-12.8V323h46.9v42H1185.5z"/>
	</g>
	<path class="st1" d="M1150.8,457.5v2.8h0C1150.8,459.4,1150.8,458.5,1150.8,457.5z"/>
	<rect x="346.2" y="355.7" class="st4" width="46.9" height="190.8"/>
	<path class="st4" d="M411,497.7L411,497.7l0-1.8C411,496.5,411,497.1,411,497.7z"/>
	<path class="st4" d="M755,472.1v111.3c0,57.3-12.2,9.9-14.8-10.4c-2.6-20.3-26.5-26.5-26.5-26.5v0.1h-63.1v32.5
		c0,2.2-0.1,4.2-0.3,6c-1.1,10-10,17.7-20.6,17.7H548v-17.6h70c9.2,0,9.6-6,9.6-6v-32.5h-89.3v32.5c0,0,0.4,6,9.6,6v17.6h-11.7
		c-10.6,0-19.6-7.6-20.7-17.7c-0.2-1.8-0.3-3.8-0.3-6v-32.5h-37.7v-0.1h-23.8c-21.6,0-39.9-16.3-42.1-37.8c-0.3-3.4-0.6-7-0.6-11
		c0-0.6,0-1.2,0-1.8v-89.6c0-4.7,0.2-8.9,0.6-12.8c2.2-21.5,20.5-37.8,42.1-37.8h65.8c21.6,0,39.9,16.3,42.1,37.8
		c0.4,3.9,0.6,8.1,0.6,12.8v91.4h-46.9v-91.4c0,0-0.8-12.8-19.6-12.8h-18.1c-18.9,0-19.7,12.8-19.7,12.8v89.6
		c0,0,0.8,12.8,19.7,12.8v0.1h236.2v0.1c0,0,23.9-6.1,26.5-26.5S755,414.7,755,472.1z"/>
	<path class="st4" d="M730.6,406.3v20.6c0,4.7-0.2,8.9-0.6,12.8c-2.2,21.5-20.5,37.8-42.1,37.8h-43.9v-37.8H664
		c18.9,0,19.6-12.8,19.6-12.8v-20.6c0,0-0.8-12.8-19.6-12.8h-17c-18.9,0-19.7,12.8-19.7,12.8v90.5h-46.9v-90.5c0-0.3,0-0.6,0-0.9
		c0-4.3,0.2-8.3,0.6-11.9c2.2-21.5,20.5-37.8,42.1-37.8h64.7c21.6,0,39.9,16.3,42.1,37.8c0.4,3.6,0.6,7.6,0.6,11.9
		C730.6,405.7,730.6,406,730.6,406.3z"/>
	<path class="st4" d="M580.4,405.4c0,0.3,0,0.6,0,0.9L580.4,405.4L580.4,405.4z"/>
	<path class="st4" d="M730.6,405.4v0.9C730.6,406,730.6,405.7,730.6,405.4L730.6,405.4z"/>
	<path class="st4" d="M777.7,497.9L777.7,497.9l0-2C777.6,496.5,777.7,497.2,777.7,497.9z"/>
	<path class="st4" d="M928.3,393.6c-2.2-21.5-20.5-37.8-42.1-37.8h-65.8c-21.6,0-39.9,16.3-42.1,37.8c-0.4,3.9-0.6,8.1-0.6,12.8
		v89.4c0,0.7,0,1.4,0,2c0,3.9,0.3,7.4,0.6,10.7c2.2,21.5,20.5,37.8,42.1,37.8h65.8c21.6,0,39.9-16.3,42.1-37.8
		c0.3-3.3,0.6-6.9,0.6-10.7c0-0.7,0-1.4,0-2v-89.4C928.9,401.8,928.7,397.5,928.3,393.6z M862.3,508.6h-18.1
		c-18.9,0-19.6-12.8-19.6-12.8v-89.4c0,0,0.8-12.8,19.6-12.8h18.1c18.9,0,19.7,12.8,19.7,12.8v89.4
		C882,495.8,881.2,508.6,862.3,508.6z"/>
	<path class="st4" d="M928.9,495.8v2h0C928.9,497.2,928.9,496.5,928.9,495.8z"/>
	<path class="st4" d="M1101.6,355.7v141.2c0,0.7,0,1.4,0,2c0,3.9-0.3,7.4-0.6,10.7c-2.2,21.5-20.5,37.8-42.1,37.8h-65.8
		c-21.6,0-39.9-16.3-42.1-37.8c-0.3-3.3-0.6-6.9-0.6-10.7c0-0.7,0-1.4,0-2v-141h46.9v141c0,0,0.8,12.8,19.6,12.8h18.1
		c18.9,0,19.7-12.8,19.7-12.8V355.7H1101.6z"/>
	<path class="st4" d="M950.4,498.9L950.4,498.9l0-2C950.3,497.5,950.3,498.2,950.4,498.9z"/>
	<path class="st4" d="M1101.6,496.8v2h0C1101.6,498.2,1101.6,497.5,1101.6,496.8z"/>
	<path class="st4" d="M1123.7,497.7L1123.7,497.7l0-2C1123.7,496.3,1123.7,497,1123.7,497.7z"/>
	<path class="st4" d="M1384.6,397.2V435H1350v60.6c0,1,0,1.9,0,2.8c-0.1,3.6-0.3,6.9-0.6,10c-2.2,21.5-20.5,37.8-42.1,37.8h-140.9
		c-21.6,0-39.9-16.3-42.1-37.8c-0.3-3.3-0.6-6.9-0.6-10.7c0-0.7,0-1.4,0-2v-89.4c0-4.7,0.2-8.9,0.6-12.8
		c2.2-21.5,20.5-37.8,42.1-37.8h108.3v37.8h-84.4c-18.9,0-19.7,12.8-19.7,12.8v25.9h104.1V470h-104.1v25.7c0,0,0.8,12.8,19.7,12.8
		h93.2c18.9,0,19.7-12.8,19.7-12.8V355.2h46.9v42H1384.6z"/>
	<rect x="607.8" y="569.3" class="st4" width="730" height="246"/>
	<text transform="matrix(1 0 0 1 607.7731 648.8964)" class="st1 st5 st6">FANFARE BORDEAUX INP</text>
	<polygon class="st1" points="168,277.5 154.5,277.5 154.5,265.6 133.5,265.6 133.5,247.2 202.5,247.2 202.5,265.6 181.5,265.6 
		181.5,277.5 	"/>
	<polygon class="st1" points="256.4,277.5 243,277.5 243,265.6 221.9,265.6 221.9,247.2 291,247.2 291,265.6 269.9,265.6 
		269.9,277.5 	"/>
	<polygon class="st1" points="344.8,277.5 331.3,277.5 331.3,265.6 310.2,265.6 310.2,247.2 379.3,247.2 379.3,265.6 358.2,265.6 
		358.2,277.5 	"/>
</g>
<g id="Calque_5">
	<path class="st7" d="M319.3,490.1l8.9-17.4c0,0,3.7-11.3,4.4-13.2c0.7-1.8-5.6-26.7-6.7-28.8s-14.5-20.6-14.5-20.6l66.2,0.6
		l16.1,12.2l-2.8,32.6l29.4,48.6l13.1,41.2l-35.9,12.4l-17.7-7.8L319.3,490.1z"/>
	<path class="st8" d="M428.5,617.6l12.7-10.4l19.9,1.1l13.2,6.8h8.3l14.4-5.3l24.5-11.6c0,0,21.9-7,22.4-7.3c0.6-0.3,25-0.5,25.2,0
		s-6.1,21.1-6.1,21.1s-14,14-14.5,14.7s-40.5,25-41.2,25.2s-14.7,10.1-15.1,10.7c-0.4,0.6-4.8,17.3-5.3,17.9
		c-0.6,0.5-22.3,11-22.3,11l-12.5-3.3L428.5,617.6z"/>
	<path d="M543.9,616.4L531,632.9l-9.3,6.4l-24,13.4l10.3-1.8l-8.3,11.3c0,0,21-8.6,59.9-40.6c0,0,15.5,23.4,42.2,25.4
		c78.3,5.9,79.9-72.2,81.4-73.1l-42.8-1.6L612.1,628l-10.5-1.2l-11-10.1l-10.6-22.1l9.9-33l-9.8-7l-13.6-2.1l-19.8,6.8l-12.5,1.1
		l-10.4-5.5l-14.4,2.8l-23.2,0.6L460,555l-18.2-14.4l-21.4,16.5c0,0,12.6,21.6,54,21.6c0,0,20,0,37.6-2.5l20.1,2.2l2.3,0.3
		c0,0-7.7,6.5-9.1,14.2c0,0-18,8.9-44,17.5c0,0-11.7-18.3-39.7-9.2c0,0-15.9,4.9-19.5,19.1c0,0,23.7-5.7,39.2,26.6
		s-7.5,45.2-7.5,45.2s22.4-9.4,11.9-40.6s-30.9-35.9-30.9-35.9s28.8-14.4,43.4,14.6l7.4-2.4l-4.1-7.4c0,0,26.8-9.4,33.1-11.3
		c0,0-11.3,8.6-15.2,10.8c0,0,22.4-7.7,28.4-10.5c0,0-2,0.9-18.3,15c0,0,17.5-8.1,34.3-17.3c0,0,0,0-11.4,12.1"/>
	<path d="M470.5,616.4c0,0,15.2,21,14.6,44.6c-0.5,20.5-9.4,23.5-22.3,24.1l-8.8,7.2c0,0,14.1,7.6,30.1-2.7
		c16-10.3,17.1-21.9,15.7-27.4c-1.4-5.5-0.4-30.6-17.1-47.2L470.5,616.4z"/>
	<polyline points="508,650.9 497.7,652.7 493.9,655.1 493.6,663.1 496.7,664 500.2,662 	"/>
	<path d="M378.7,551.9c0,0,6.6,15.8,28.7,12.9s36.8-14.7,36.8-14.7l-6.3-16.3l-3.8-20.5l-3.3-9L413,489.6l-11-18.7l-6.1-18.4
		l15.5-51.5c0,0-23.2,12.1-35.7,7.3l1.8,8.6c0,0-12.1,41-2.2,55.8c9.9,14.8,23.6,36.6,41.6,40.9c0,0,7,32.4-14.7,33.9
		c0,0-8.1,2.2-16.6,0.7c0,0,3.3-7.5,1.8-15.9c0,0-0.4,5.4-2.9,8.4c-2.6,3-2.6,3-2.6,3S376.5,548.3,378.7,551.9z"/>
	<path class="st9" d="M453.9,692.3c0,0-194.1,48-269.2-80.8c0,0-52.1-100.9,134.6-121.4c0,0,53.8-10.3,64.9,18s-9.1,49.4-12.7,50.9
		c-3.7,1.5-34.7,8-62,8c-27.2,0-76.9,26.9-23.2,42.7s93.7,27,135.9,10.7c0,0,23.1-10,39.7,21.7C478.4,673.7,458.5,691.3,453.9,692.3
		z"/>
	<path d="M326,489.6c0,0-1.8-27.5,49.7-25.3v-17c0,0-43.4-4.8-55.6,23.2c0,0-5.6,7.5-4.8,20l6.3-0.5L326,489.6z"/>
	<path d="M238.1,667.2c0,0,108.6,49.9,215.8,14.6c0,0,9.7-6,14-22.1l0.4,8.5l-2,11l-3.5,5.8l-4.7,4.7l-6.9,4.7l-19.2,2l-30.6,3.5
		l-32.7,1.1l-26.1-1.2l-33.7-4.8l-33.2-9.3L238.1,667.2z"/>
	<path d="M517.4,223.6c0,0,13,64.8-17.4,116.7c0,0,52.4,15.9,56.6,73.8l-8,4.9l-17.1-34.5l-25.6-15.2l-37.9-5.1l11.9-20
		c0,0,16.1-30.9,16.4-32.6c0.3-1.7,8.9-28.4,8.9-28.4l9.3-52.5L517.4,223.6z"/>
	<path class="st10" d="M274.9,532.4c0,0,11.4-2.9,17.7,3.7l-18.6,93.1c-0.6,2.8-2.8,4.9-5.6,5.2c-7.3,0.9-21.4,1.4-28.7-7.5
		c-1-1.2-1.2-2.8-0.7-4.2L274.9,532.4z"/>
	<path class="st10" d="M315.3,533.8c0,0,9.7-9.7,17.4,0v105.5c0,2.2-1.4,4.2-3.6,4.9c-5.4,1.7-16,3.7-23.8-3.1
		c-0.8-0.7-1.3-2.1-1.2-3.2L315.3,533.8z"/>
	<path class="st10" d="M353.2,535.7c0,0,11.8-7.2,18.3-1.9l29.7,101.4c0.7,2.3-0.1,4.8-2,6.3c-5.2,4.1-16.3,10.6-27.1,3.8
		c-1.8-1.1-3-3-3.3-5.1L353.2,535.7z"/>
	<path d="M292.7,312.1c0,0,42.6,36.6,109.9,15c0,0-12.1,2.9-26.9,0c0,0,55.6-25.2,59.3-73c0,0-11.8,19.1-41.2,35.7L292.7,312.1"/>
	<path d="M272.3,208"/>
	<path d="M221.1,236.4c0,0-8.4,11-6.9,22.9c1.5,11.8,7.7,16.4,7.7,16.4S216,258.1,221.1,236.4z"/>
	<path d="M258.8,190.2c0,0-16.6,16.3-22.4,51.1c-5.8,34.8,23.7,61,23.7,61s-18.2-25.9-16-53C246.4,222.2,246.1,212.6,258.8,190.2z"
		/>
	<path d="M485.2,261.8c0,0,0.3-53.8-14.2-83.5c-22.2-45.3-60.7-59.7-60.7-59.7s22.6,6.6,49.1,60.7
		C479.5,220.3,481.9,227.3,485.2,261.8z"/>
	<path d="M546.9,420.5"/>
	<path d="M546.9,416.9c0,0,19.1-14.6,37.8-4.8c0,0,74.4-25.8,99.8-1.5c0,0,18.3-11.5,51.3,8.7c0,0,33.4-21.9,59-8.7l31.8-2.4
		c0,0,23.4-5.2,48.8,2.4c0,0,26.8-13.2,46.1,6.3c0,0,13.6-12.5,45.4-10.7c7.1,0.4,25.3,0.9,31.6,10.7c0,0,9.2-29.3,44.5-31.9
		c35.3-2.6,55.1,24.6,52.4,42c0,0,39.4,41.6-0.7,74.3c0,0,27.9,37.7-17.7,66.7L543.9,431.8L546.9,416.9"/>
	<path class="st11" d="M568.2,420.5l-2.6-78c-0.2-5.5,1.6-10.9,5.3-14.9c4.3-4.7,10.4-7,16,6.3c9.9,23.8,12.1,88.9,12.1,88.9"/>
	<path class="st12" d="M601.1,414.8c0,0,55.5-83.7,63.3-108c7.7-24.3-9.6-41.6-9.6-41.6s-8.5-13.2-2.2-23.2
		c6.3-9.9,43.1,3.7,59.6,12.9c16.6,9.2,61.5,29.8,58.1,51.5s-19.1,15.8-29.1,12.5c-9.9-3.3-21-0.4-35,15.1s-65.9,95.4-65.9,95.4l0,0
		l-15-8.3L601.1,414.8"/>
	<path d="M221.9,639.8c0,0,19.8,17.5,53.8,33.2s59.9,6.7,59.9,6.7s-29.8,0.4-56.7-10.6S242.1,654.7,221.9,639.8z"/>
	<path class="st13" d="M700.3,420.5l20.4-38.7c0,0,12.6-21.7,15.2,6.8v34.2"/>
	<path d="M201.2,574c0,0,9.4-40.2,54.6-40.7c0,0-12.2-1.3-27.9-1.3C227.9,531.9,201.2,540.3,201.2,574z"/>
	<path d="M706.7,301.7c0,0,26.5,9.8,49.9,10.8c2,0.1,4.1-0.7,5.3-2.4c1.5-2.1,2.4-5.8-0.5-12.6c-5.9-14.2-18.6-20.8-18.6-20.8
		l21.7,14.2l4.7,9.7l-1.4,10.6l-10.5,10.2C757.2,321.3,745.3,320.5,706.7,301.7z"/>
	<path d="M680.5,258.5c-2.6-0.3-4.3,2.8-2.6,4.8c6.4,7.5,20.3,20.5,43.8,27.9c34.2,10.8,31.2,5.1,11.9-6.6
		C712.2,271.7,695.3,260.1,680.5,258.5z"/>
	<path d="M673.4,256.5c0,0-21.2-14.9-13.8,1c7.4,15.9,36.9,34.5,36.9,34.5s-23.6-23.3-28.2-29.4
		C660.7,252.6,673.4,256.5,673.4,256.5z"/>
	<path d="M872.7,385.2c0.7,8.2-2.6,10.1-12.5,17.6c-11,8.4-16.2,9.9-16.2,9.9l0.7,4.8c-3.5,5.9-4.8-8.9-3.5-5.2
		c1.4,4.1-2.6-0.2-1.5,4.7c0.2,1-4.4,1.8-4.9,2.7l-7,11.2c-1,1.6-2.8,2.4-4.7,2l-31.4-6.5c-0.8-0.2-1.5-0.5-2.1-1.1l-6.3-5.7
		c-1.7-1.5-15.1-4.3-13.3-5.7c3-2.3,6.7-9.2,8.3-12.1c2.5-4.7,19.4-58.2,19.6-59.2c0,0,0,0,0,0c0.1-0.5,5.1-18.9,14.1-27.9
		c9.6-9.6,11.6-17.2,17.4-17.7c0.3,0,0.6,0,0.8,0c2.1,0.3,12.4,4.8,12.1,24.8c-0.3,23.2,0.6,44.2,2.5,46.6c1.9,2.5,3.3,6,5.2,5.2
		c1.7-0.7,2.9-10.4,3.6-14.2c0.1-0.6,0.1-1.2-0.1-1.8c-0.8-2.3-2.6-10.4,2.8-14.5c2.4-1.8,4.2-5.3,4.8-7.4c0.4-1.5,3.1-1.8,4.7-1.9
		c0,0,0,0,0.1,0h1.8c2.4-0.2,2,3,1.7,5.3l-0.7,4.4c-0.2,1.1,0.1,2.2,0.7,3.2c1.3,1.9,2.9,6.1-0.5,12.8c-0.4,0.7-0.5,1.5-0.4,2.3"/>
	<path class="st14" d="M857.9,357.4c-1.2-1.5-2.9-4.7-0.2-9.3c0.7-1.1,1.6-2.1,2.6-3c1.3-1.1,2.3-1.9,2.9-5c0.2-1,1.1-1.6,2.1-1.5
		l0,0c1.1,0.2,1.9,1.3,1.5,2.4l-1.4,4.4c-0.3,1.3-0.1,2.6,0.5,3.8c0.9,1.9,1.9,5.5-0.4,10c-0.4,0.7-0.5,1.4-0.5,2.2
		c0,3.6,0.3,14.1,1.6,22.6c0.5,3.4-0.9,6.9-3.7,9c-1.9,1.4-4,2.1-6.2,3.8c-1.6,1.2-3.6,1.9-5.7,1.9h-1c-2.6,0-4.1-1.4-5.6-3.5
		l-13-17.4c-1.2-1.7-3.7-1.6-4.7,0.2l0,0c-0.2,0.4-0.3,0.9-0.3,1.3v54.5l-11.1,4.4l-19.3-10l-9.3-1.7v0c7.3-11.5,12-24.5,13.8-38
		l6.2-44.8c0.8-5.9,3-11.5,6.5-16.3l12.9-18c0.7-1,1.8-1.5,3-1.5l0,0c1.9,0,3.6,1.5,3.7,3.5l3.2,50.8c0.3,5.1,2.1,10,5,14.1l6.5,9.1
		c0.8,1.1,2.3,1.4,3.5,0.8l2.3-1.3c2.1-1.2,3.5-3.4,3.8-5.8l1.9-18.8C858.8,359,858.5,358.1,857.9,357.4z"/>
	<path d="M311.4,569.7c0,0-20.9,3.9-23.4,8.8l-9.3,28.6l6-32.2l1.3-6.6l14.4-0.5l5.5-1.6L311.4,569.7z"/>
	<path class="st15" d="M278.8,531.9l2.6-7.1h-5.8c0,0,0-1.9,2.2-6.9c0.6-1.4,1.9-2.3,3.4-2.3c3.3,0,9.6,0.4,15.9,3
		c1.3,0.5,2,2,1.7,3.3l-1.4,6l-6.3-2.5l-1.5,8.5l-4.9-1.4L278.8,531.9z"/>
	<path class="st16" d="M317.5,531l1.5-9.3l-5.7,1.2c0,0-0.4-2,0.9-7.9c0.3-1.2,1.1-2.1,2.1-2.6c2.8-1.2,8.6-3,16.2-0.6
		c1.8,0.6,3,2.3,3,4.2v7.1l-6.9-1.5l0,9.1l-4.5-1.2L317.5,531z"/>
	<path class="st16" d="M367.7,532.6l-2.5-7.4l5.8,0.5l-1.5-7c-0.5-1.5-1.8-2.3-3.3-2.6c-4.9-1-9.6-1-15.8,1.5
		c-1.4,0.6-2.4,1.9-2.2,3.5l1.2,6.8l6.1-1.8l1,8.1l5.8-2.2L367.7,532.6z"/>
	<path d="M251.3,508.3c0,0,72-20,104.5-11.2c24.6,6.7,27.1,22.8,27.1,22.8l1.3-11.8l-8.5-11l-16.4-5.4l-13.8-3.3l-26.2,1.7
		l-36.6,5.6L251.3,508.3z"/>
	<path class="st12" d="M967.1,569c0,0,43.4,11.6,83.7,42.5c40.3,30.9,60.2,25.4,60.2,25.4s25.4-11.8,11.6-33.8
		c0,0-45.3-5.4-65.1-24.2s-35.9-17.7-35.9-17.7l-30.1-7.2L967.1,569z"/>
	<polygon points="1046.5,588.3 1068.2,599.3 1060.3,583.2 1051,566.2 987,562.7 987,570.4 1010,583.1 1029.5,594.8 1050.4,608.1 
		1038.8,593.1 1046.8,595.7 	"/>
	<path class="st10" d="M1118.9,600.4c0,0,12-17.3,21.7,1.5s-14.9,45.7-30.1,33.5c0,0,8.4-2,12.4-7.7c4-5.7,6.1-11.9,4.9-19.6
		S1118.9,600.4,1118.9,600.4z"/>
	<path class="st10" d="M1141.5,598c0,0,10.8-2,7.9-12.2c-0.6-2.1-1.8-4.1-3.2-5.8c-2.1-2.5-4.8-4.7-9.3-8.4c0,0,18.1-6.9,27.5-2.5
		c0,0,12.5,2.2,8.9,19.4c-3.6,17.2-0.8,33.9-35.2,39.2c0,0,7.9-7.4,8.2-14.3S1141.5,598,1141.5,598z"/>
	<path class="st17" d="M1163.8,567.6c7-20.5-12.4-21.5-12.4-21.5l-6.1-12.8c-6.3-0.8-11.7-0.5-15.6-0.1c-3,0.3-5,3.2-4.2,6.1
		c2.2,8.4,5.4,23.4,6.4,28c0.2,0.8,0.9,1.4,1.8,1.4C1139,568.4,1156,566.8,1163.8,567.6"/>
	<path d="M1127,533.5c0,0,8.9-0.3,12.6,4.6l1.4,4.8l-7.1,0c0,0,14.8,2.1,17.7,11.2s-5.4,8.2-5.4,8.2s-10-0.1-12.2-5.2
		c-2.2-5.1-8.3-22.1-8.3-22.1l3.9,14.4l1.8,8.9l1.7,8.1l6.7,2.5c0,0,10.9,0.3,11.7,0.6c0.9,0.3,10.5,0.9,10.5,0.9l2.2-7.8l0-6.3
		l-2.1-4.5l-5.5-3l-5.3-2l-1.7-2.5l-4.1-8.9l-1.1-1.3l-5.2-0.5L1127,533.5z"/>
	<path d="M1161.6,586.6c0,0-1.2,6.1-1.5,12.8c-0.5,8.6-5.5,16.3-13.3,19.9c-0.2,0.1-0.4,0.2-0.6,0.3l-3.9,6.4l6.7-1.5l10.2-4.5
		l8-7.1l4.1-12.1l1.7-10.1c0,0,1.1-9.9,1.1-10.1c0-0.3-2.7-9.5-2.7-9.5l-3.4-2.9l-6-3.7l-11.2,1.1l-19.5,0l9,8.1
		C1140.2,573.6,1162.9,569.3,1161.6,586.6z"/>
	<path d="M846.7,579.7c13.4-0.1,19.1-3.9,20.2-3.6c34.7,9.7,59.6-3.8,59.6-3.8c34,16.7,54.1-3.4,75.1,10.6
		c3.5,2.3,10.7-17.2,14.2-16.2c20.3,5.6,17.5,3.7,17.5,3.7s20.3,8,24,6.9c13.8-3.8,44.1-16.7,28.4-54.6h-8.9l-16.9,25.5l-28.8,7.4
		l-42.4-1.5l-79-1.3l-86.9,1.7l-20.4-9.7l-34.2,10.6l-38.7-5.5l-15.9-3.2l-24.6,6.4l-21.6,3.3V576v2.6c0,0,39.6,2.2,50.5-11.8
		c0,0,9.4,11.9,40.7,11.9s47.9-11.2,47.9-11.2S817.4,579.7,846.7,579.7"/>
	<path d="M248.3,624.4c0,0,8.3,4.1,19,1.4l11.4-54.9l-15.2,48.9C263.5,619.8,259.9,624.7,248.3,624.4z"/>
	<polygon points="338.9,565.2 345.5,625.1 332.7,622.4 331.6,565.2 	"/>
	<polygon points="381.1,552.9 410.9,626.4 399.1,628.1 377.6,554.9 	"/>
	<polygon points="286.6,572.3 291.2,572.2 288,610.4 280.1,607.6 	"/>
	<path d="M376.4,640.8c0,0,11.6,1.3,19.2-4.8l-11.9-39.8l5.8,38.6C389.4,634.9,386.8,637.9,376.4,640.8z"/>
	<path d="M218.9,512.9c0,0-40.1,16.9-47.7,58c-7.5,41,36.6,82.3,53.5,93.1l13.3,5.3l-33.8-30.8l-20.8-29.8l-5.4-29.2l2.6-24.7
		l26.9-27.6L218.9,512.9z"/>
	<path d="M815,411.6c0,0,3.9-51.1,0-59.9c0,0,2.5-4.4,5.2-7s8.1,18.6,8.1,18.6s-4.2-10.7-6.8-10.7"/>
	<path d="M1070.6,616c0,0,29.9,11.1,42,6.9c0,0-8.7,5-10.3,5.2C1100.6,628.3,1070.6,616,1070.6,616z"/>
	<path d="M1065.4,565.9c0,0,4.7,25.1,45.1,35.9c0.7,0.2,1.4,0.4,2.1,0.5c42.4,10.5-30.7-9.2-30.7-9.2l-27.5-10l-7.5-14.6
		L1065.4,565.9z"/>
	<path d="M326.3,636.6c0,0-9.1,1.5-15.9-2.7l4.8-29.6l-0.1,28.5C315.2,632.8,317.7,634.9,326.3,636.6z"/>
</g>
<g id="Calque_3">
	<g>
		<ellipse class="st8" cx="342.9" cy="245.2" rx="171.6" ry="169"/>
		<g>
			<path d="M510,245.2c0,17.6-2.6,34-8.2,51c-2.8,8.4-5.6,15.1-9.6,23c-3.8,7.5-8.3,14.7-13.2,21.5c-0.6,0.9-1.2,1.7-1.9,2.5
				c-0.3,0.4-0.5,0.7-0.8,1.1c-0.2,0.2-0.4,0.5-0.5,0.7c0.3-0.4,0,0-0.1,0.2c-1.3,1.6-2.6,3.3-4,4.9c-2.7,3.2-5.5,6.3-8.5,9.3
				c-3,3.1-6.1,6-9.3,8.8c-1.6,1.4-3.2,2.7-4.8,4.1c-0.8,0.6-1.5,1.2-2.3,1.8c-1.1,0.8-1,0.8-2.1,1.6c-6.7,5.1-13.9,9.7-21.3,13.7
				c-7.8,4.2-14.9,7.4-22.9,10.3c-8.2,2.9-16.6,5.3-25.1,6.9c-4.5,0.9-8.7,1.5-12.6,2c-4.5,0.5-8.9,0.8-13.4,1
				c-18.2,0.7-35-1.3-52.3-6.1c-4.2-1.2-8.3-2.5-12.3-4c-2-0.7-4-1.5-6-2.3c-0.5-0.2-1-0.4-1.5-0.6c-0.5-0.2-0.1,0,0,0
				c-0.3-0.1-0.6-0.2-0.8-0.4c-1-0.4-2-0.9-2.9-1.3c-7.8-3.5-15.3-7.7-22.5-12.3c-7.3-4.7-13.1-9.1-19.5-14.8
				c-6.3-5.6-12.3-11.7-17.7-18.2c-1.3-1.6-2.7-3.2-4-4.9c0.4,0.5-0.3-0.4-0.4-0.5c-0.3-0.4-0.6-0.8-0.9-1.3c-0.7-0.9-1.3-1.8-2-2.7
				c-2.4-3.4-4.8-6.9-6.9-10.5c-2.2-3.6-4.2-7.3-6.2-11c-1-1.9-1.9-3.8-2.8-5.7c-0.4-1-0.9-1.9-1.3-2.9c-0.2-0.5-0.4-1-0.6-1.5
				c-0.1-0.2-0.2-0.4-0.3-0.6c0.2,0.6-0.1-0.2-0.2-0.4c-3.3-7.9-5.9-16-7.9-24.3c-1-4.2-1.9-8.5-2.6-12.7c-0.7-4.2-1.1-7.9-1.5-12.6
				c-0.7-8.9-0.7-17.8,0.1-26.7c0.7-8.4,2-16.3,4.1-25c2-8.2,4.9-16.8,8-24.2c3.1-7.3,7.2-15.3,11.6-22.3c2.2-3.6,4.5-7.1,7-10.5
				c0.6-0.8,1.1-1.6,1.7-2.3c0.3-0.4,0.6-0.8,1-1.3c0,0,0.5-0.6,0.2-0.3c-0.3,0.3,0.4-0.5,0.5-0.6c1.3-1.6,2.6-3.3,4-4.9
				c5.4-6.4,11.3-12.4,17.6-17.9c1.6-1.4,3.2-2.7,4.8-4.1c0.8-0.7,1.6-1.3,2.5-2c0.2-0.1,0.4-0.3,0.5-0.4c0.6-0.5-0.4,0.3,0.2-0.1
				c0.5-0.4,1-0.7,1.4-1.1c3.4-2.5,6.8-4.9,10.4-7.2c7.2-4.6,14.6-8.6,22.4-12.1c1-0.4,2-0.9,2.9-1.3c0.5-0.2,0.1,0,0,0
				c0.3-0.1,0.6-0.2,0.8-0.4c0.6-0.2,1.1-0.5,1.7-0.7c2-0.8,4-1.6,6-2.3c4.1-1.5,8.2-2.8,12.4-3.9c4.2-1.2,8.5-2.1,12.8-3
				c2.2-0.4,4.3-0.8,6.5-1.1c2.4-0.4,3.3-0.5,5.9-0.8c9-1,18.2-1.3,27.3-0.9c9.2,0.4,16.9,1.3,25.7,3.1c8.6,1.7,17,4.1,25.3,7.1
				c2,0.7,4,1.5,6,2.3c1.2,0.5,1,0.4,2.1,0.9c1.1,0.5,2.1,0.9,3.1,1.4c3.9,1.8,7.7,3.7,11.4,5.7c7.5,4.1,14.6,8.8,21.4,13.9
				c0.2,0.1,0.4,0.3,0.5,0.4c-0.1-0.1-0.4-0.3,0,0c0.4,0.3,0.8,0.6,1.2,1c0.9,0.7,1.8,1.4,2.6,2.1c1.6,1.3,3.2,2.7,4.8,4.1
				c3.1,2.8,6.2,5.7,9.1,8.7c11.7,12.1,21.1,25.2,28.9,40.5c3.9,7.7,6.7,14.5,9.4,22.8c2.7,8.3,4.7,16.8,6.1,25.3
				c0.4,2.4,0.5,3.3,0.8,5.5c0.2,2.1,0.4,4.2,0.6,6.3C509.8,236.4,510,240.8,510,245.2c0,5.8,9,5.8,9,0c0-18.1-2.9-36.3-8.6-53.6
				c-5.5-16.6-13.5-32.4-23.8-46.6c-10.4-14.4-22.9-27.1-37-37.8c-14.1-10.7-29.9-19.1-46.5-25.1c-17.1-6.2-35.3-9.6-53.5-10.3
				c-18.5-0.7-37.2,1.5-55,6.4c-17.1,4.8-33.6,12.2-48.5,21.9c-14.6,9.5-27.8,21.1-39,34.4c-11.4,13.7-20.7,28.9-27.5,45.3
				c-6.9,16.5-11,34.1-12.4,52c-1.4,18.3,0.1,36.8,4.5,54.6c4.2,17.1,11.2,33.6,20.4,48.7c9.1,14.8,20.5,28.2,33.5,39.7
				c13.2,11.6,28.2,21.3,44.3,28.4c16.8,7.5,34.6,12.3,52.9,14.4c18.4,2.1,37.2,1.2,55.4-2.4c17.6-3.5,34.6-9.8,50.3-18.4
				c15.3-8.4,29.5-19.2,41.7-31.8c12.1-12.5,22.4-26.8,30.2-42.3c8-15.9,13.6-33,16.4-50.6c1.4-8.9,2.1-17.9,2.1-26.9
				C519,239.4,510,239.4,510,245.2z"/>
		</g>
	</g>
	<path d="M270.6,392.6c0,0,35.9,27,49.7,57.3c0,0,5.6,7.6,5.5,18.8l15.5-12.2c0,0-2.8-17.1-9.4-30.4c-6.6-13.2-16.7-18.8-16.7-18.8
		l-24.7-6.4L270.6,392.6z"/>
	<path d="M310,419.1c0,0,31.3,9.3,57.2,6.1c0,0,7-3.3,4.2,24.3c-2.8,26.6,4.3,3.1,4.3,3.1l15.3-26.3V413l-12.1-6.6l-27.6,3.7h-16.6
		l-19.4-2.7l-16.4-5.8L310,419.1z"/>
	<g>
		<path class="st18" d="M1079.9,494.4c-1.7,1.3-3.6,2.5-5.5,3.5c4.6,6.3,6.8,13.9,6.8,21.2c0,12.7-5.4,23.8-15.2,31.3
			c-7.9,6-17.7,9.1-29.2,9.1h-18.3c-7.1,0-13.5-1.2-19.2-3.6c-5.8,2.4-12.4,3.6-19.7,3.6h-29c-11.2,0-21.1-2-29.6-6.1
			c-7,4-15.3,6.1-24.7,6.1h-18.3c-4.5,0-8.8-0.6-12.7-1.8c-4.1,1.2-8.5,1.8-12.9,1.8h-15c-11.7,0-22.3-3.7-30.9-10.7
			c-5.4,3.7-11.2,6.5-17.2,8.1c-6.2,1.7-13.8,2.6-23.2,2.6c-17.4,0-29-2.7-37.9-8.7c-1.8-1.3-3.6-2.6-5.2-4
			c-4.9,4.1-10.3,7.2-15.9,9.2c-6.6,2.4-14.6,3.5-24.3,3.5c-2.7,0-5.2-0.1-7.5-0.2l-16.7,41.1c-11.2,27.6-32.6,30.6-41.3,30.6
			c-9.5,0-18.6-3.5-25.5-10c-7.5-6.9-11.6-16.3-11.6-26.4c0-5.8,1.4-11.8,4.5-19.6l6.4-15.7c-8.2-0.8-15.7-3.7-22-8.7
			c-10.3,9-21.8,10.3-27.6,10.3c-6.8,0-13.2-1.6-18.8-4.8c-5.8,2.2-12.4,3.4-19.5,3.4h-18.7c-13.5,0-24.7-3.3-33.3-9.7
			c-10.8-8-16.8-20.3-16.8-34.4c0-2.9,0.3-5.9,0.9-9.2c-8.2-3.4-15.6-9-21.9-16.6c-10.1-12.1-15.4-27.2-15.4-43.6
			c0-21.9,8.6-42.1,24.8-58.2c16.2-16.1,36.4-24.6,58.3-24.6c17.7,0,33.6,5.7,45.9,16.6c13.4,11.7,20.5,27.3,20.5,44.9
			c0,2.5-0.1,5.1-0.4,7.7c6.2-3.7,13.3-5.6,21.1-5.6c4.6,0,9,0.7,13.2,2.1c6.3-2.4,12.7-3.5,19-3.5c13,0,24.7,4.3,33.9,12.3
			c2,1.8,3.8,3.7,5.4,5.7c7.7-10.6,19.4-16.6,33-16.6c3.7,0,7.2,0.5,10.6,1.5c5.4-1.9,11.2-2.9,17.2-2.9c13.2,0,25.2,4.8,34.4,13.7
			c12.4-9,26.9-13.7,42.5-13.7c15.7,0,29.7,5.1,40.8,14.7c11.2-13,24.8-14.7,31.3-14.7c9,0,17.2,2.9,24,8.4c8.9-6,17.9-6.9,22.8-6.9
			c9.7,0,18.9,3.6,25.9,10.2c0.4,0.4,0.8,0.7,1.1,1.1c11.7-8.3,25.3-12.7,39.9-12.7c12.4,0,23.4,2.9,32.6,8.7
			c3.7-2.4,7.8-4.2,12.3-5.4l0.6-1.4c7.5-17.8,22.2-27.9,40.2-27.9c9.6,0,18.7,3.6,25.7,10.1c7.5,7,11.7,16.5,11.7,26.7
			c0,0.8,0,1.5-0.1,2.3c6.6,6.9,9.8,16,9.8,24.7C1095.3,475.8,1089.9,486.9,1079.9,494.4z"/>
	</g>
	<g>
		<path d="M490.4,507.9h17.2c9.4,0,14.1,3.3,14.1,9.8c0,4.6-1.7,8.3-5,10.8c-3.3,2.6-8,3.8-14,3.8h-18.7c-7.5,0-13.2-1.5-17.1-4.4
			c-3.9-2.9-5.8-7.1-5.8-12.7c0-3.9,1.4-9.3,4.2-16.3l20.6-50.6c4.2-10.3,6.3-17.3,6.3-21.1c0-3.1-1.4-5.8-4.2-8.3
			c-2.8-2.4-6-3.6-9.6-3.6c-6.8,0-13,3-18.6,8.9c-5.5,5.9-8.3,12.5-8.3,19.8c0,4.2,0.9,7.5,2.8,9.8c1.9,2.3,5.3,4.5,10.3,6.5
			c4.4,1.8,6.7,4.8,6.7,9.1c0,4-1.5,7.2-4.5,9.8c-3,2.6-6.7,3.8-11.1,3.8c-8.5,0-15.9-3.6-21.9-10.9c-6.1-7.3-9.1-16-9.1-26.2
			c0-14.8,5.6-27.8,16.8-39c11.2-11.1,24.3-16.7,39.2-16.7c11.2,0,20.6,3.3,28,9.8c7.5,6.6,11.2,14.7,11.2,24.5
			c0,7-1.8,14.9-5.3,23.7L490.4,507.9z"/>
		<path d="M608.6,510h12.3c8.7,0,13,3,13,9.1c0,4.2-1.5,7.4-4.6,9.7c-3.1,2.3-7.3,3.5-12.7,3.5h-21.4c-4.2,0-7.7-1.3-10.5-3.8
			c-2.8-2.5-4.3-5.7-4.3-9.5c0-2.3,1-5.8,2.9-10.5l9-22.3c1-2.3,1.5-4.2,1.5-5.6c0.1-1.6-0.6-3-2-4.2c-1.4-1.2-3.2-1.7-5.4-1.7
			c-7,0-12.7,5.3-17,15.9l-12.1,29.7c-3.6,9-9,13.5-16.2,13.5c-2.9,0-5.4-0.9-7.5-2.7c-2.1-1.8-3.1-4-3.1-6.6c0-1.9,0.5-4.2,1.6-6.9
			l1.1-2.8l20.7-51.1c2.7-6.6,7.2-9.9,13.6-9.9c5.3,0,9,2.3,11.3,7c7.3-5.6,14.3-8.4,20.9-8.4c6.4,0,11.7,1.8,15.9,5.5
			c4.2,3.7,6.3,8.4,6.3,14c0,3.1-0.8,6.6-2.3,10.4L608.6,510z"/>
		<path d="M660,524.4l-26.8,65.8c-3.7,9.1-9.1,13.6-16.2,13.6c-2.7,0-5.1-0.9-7-2.7c-1.9-1.8-2.9-4-2.9-6.5c0-2.1,0.9-5.3,2.6-9.6
			L659,463.2c2.5-6.2,6.9-9.2,13.1-9.2c4.3,0,7.7,2.1,10.3,6.2c4.8-5.1,10.6-7.6,17.5-7.6c7.2,0,13,2.7,17.4,8.2
			c4.4,5.4,6.6,12.6,6.6,21.5c0,16.8-5.2,30.5-15.7,41.1c-3.4,3.5-6.9,5.9-10.6,7.2c-3.6,1.3-8.7,1.9-15.2,1.9
			c-7,0-11.8-0.5-14.4-1.4C665.5,530,662.8,527.8,660,524.4z M668.4,503.4c1.7,3,3.3,5,4.9,5.8c1.5,0.9,4,1.3,7.3,1.3
			c4.9,0,8.6-1.8,11.4-5.4c5.5-7.3,8.3-14.8,8.3-22.6c0-6.6-3.1-9.9-9.4-9.9c-6.9,0-11.9,4-14.9,12c-0.3,0.9-0.6,1.6-0.8,2.3
			L668.4,503.4z"/>
		<path d="M776.8,452.5c9.9,0,18.1,3.1,24.5,9.4c6.4,6.3,9.6,14.3,9.6,24c0,7.3-1.7,14.6-5,21.8c-3.3,7.2-7.7,13-13,17.3
			c-3.6,2.8-7.2,4.7-11,5.8c-3.8,1.1-9.1,1.6-15.9,1.6c-11.1,0-18.7-1.3-22.6-4c-9.2-6.3-13.7-15.6-13.7-27.9c0-13,4.7-24.2,14-33.7
			C753,457.2,764.1,452.5,776.8,452.5z M774.4,474.3c-5.1,0-9.7,2.5-13.8,7.5c-4.2,5-6.3,10.5-6.3,16.5c0,7.9,4.4,11.9,13.3,11.9
			c5.2,0,9.2-1.6,12-4.8c4.6-5.3,7-11.3,7-18c0-3.9-1.1-7-3.4-9.4C780.9,475.5,778,474.3,774.4,474.3z"/>
		<path d="M888.6,510h11.9c4.7,0,8.1,0.7,10,2.1c2,1.4,3,3.7,3,6.9c0,4.2-1.5,7.4-4.6,9.8c-3,2.4-7.3,3.5-12.8,3.5h-18.4
			c-5.7,0-9.6-2.2-11.5-6.7c-3.8,4.4-8.5,6.7-14.1,6.7h-15c-6,0-11-1.9-15-5.6c-4-3.8-5.9-8.5-5.9-14.2c0-3.3,0.9-7.1,2.7-11.5
			l13.9-34.2c3.9-9.5,9.2-14.2,16-14.2c2.9,0,5.4,0.9,7.5,2.8c2.1,1.9,3.1,4.2,3.1,6.9c0,2.1-0.5,4.4-1.6,7.1l-1.1,2.8l-10.8,26.3
			l-1.1,3.1c-0.6,1.8-1,3.1-1,4c-0.1,3.1,1.8,4.6,5.9,4.6c8.5,0,14.1-3.4,16.9-10.3l12.8-31.6c3.8-9.6,9.2-14.4,16.2-14.4
			c2.9,0,5.3,1,7.4,2.9c2.1,1.9,3.1,4.2,3.1,6.9c0,2.1-0.9,5.4-2.7,9.8L888.6,510z"/>
		<path d="M941.9,502.3c0,5.1,3.9,7.7,11.6,7.7h30.4c8.6,0,12.9,3,12.9,9.1c0,4.2-1.5,7.4-4.6,9.7c-3,2.3-7.3,3.5-12.8,3.5h-29
			c-10.8,0-19-2.7-24.7-8c-5.6-5.3-8.5-13.1-8.5-23.4c0-13.2,4.5-24.6,13.4-34.1c8.9-9.6,19.5-14.4,31.8-14.4c9,0,16.1,2.3,21.6,7
			c5.4,4.7,8.2,10.9,8.2,18.5c0,9.2-3.8,16.1-11.3,20.5c-4.2,2.5-10.4,3.8-18.7,3.8H941.9z M946.8,483.7h11.3
			c7.3,0,10.9-1.6,10.7-4.8c-0.2-3.6-2.6-5.4-7.1-5.4C955.4,473.4,950.4,476.8,946.8,483.7z"/>
		<path d="M1052,453.9h3.2c8.7,0,13,3,13,9.1c0,4.2-1.5,7.4-4.6,9.7c-3.1,2.3-7.3,3.5-12.7,3.5h-7.5l-13.7,33.7h11.5
			c8.7,0,13,3,13,9.1c0,4.2-1.5,7.4-4.6,9.7c-3,2.3-7.3,3.5-12.8,3.5h-18.4c-5.2,0-9.3-1.2-12.4-3.6c-3-2.4-4.6-5.6-4.6-9.7
			c0-2.5,0.6-5.3,1.8-8.4l1.9-4.5l12.1-29.8h-1.5c-7.7,0-11.5-3-11.5-8.9c0-4.2,1.5-7.5,4.6-9.9c3-2.4,7.3-3.5,12.8-3.5h4.7
			l5.4-13.4l1.1-2.8c3.2-7.6,8.3-11.4,15.2-11.4c2.8,0,5.2,0.9,7.2,2.8c2,1.9,3,4.2,3,6.8c0,2.6-0.9,5.9-2.7,9.8L1052,453.9z"/>
	</g>
	<g>
		<g>
			<path d="M723.2,631.4c3.5-0.3,7-0.5,10.3-0.7c3.3-0.2,6.7-0.5,10.2-0.8c0.6-0.2,1.1,0,1.6,0.4c0.5,0.5,0.8,1.1,0.9,1.8
				c0.1,0.7-0.1,1.5-0.7,2.2c-0.6,0.7-1.6,1.2-3.2,1.4c-1.5,0.2-3.2,0.4-5.2,0.6c-2,0.2-4,0.4-6.1,0.6c-2.1,0.2-4.2,0.4-6.2,0.6
				c-2.1,0.2-4,0.4-5.7,0.5c-1.4,1.5-2.7,3.3-3.9,5.5c-1.3,2.2-2.4,4.5-3.5,6.9c-1.1,2.4-2.1,4.9-3,7.4c-0.9,2.5-1.6,4.7-2.2,6.8
				c-0.6,2-1.1,3.8-1.4,5.2c-0.3,1.5-0.5,2.4-0.4,2.8c0,0.3-0.1,0.4-0.3,0.5c-0.2,0.1-0.4,0.1-0.7,0.1s-0.6,0-0.9-0.1
				c-0.3-0.1-0.6-0.2-0.8-0.3c-1.9-0.9-3.4-2-4.5-3.2c-1.1-1.2-1.7-3-1.6-5.2c0.2-2.5,0.6-4.8,1.1-6.9c0.5-2.2,1.2-4.2,1.9-6.2
				c0.7-2,1.6-3.9,2.5-5.8c0.9-1.9,1.9-3.8,2.9-5.8c-2.3-0.2-4.5-0.5-6.6-0.8c-2.2-0.3-4.2-0.9-6.1-1.8c-1-0.5-1.7-1-2.1-1.7
				c-0.5-0.7-0.7-1.3-0.8-2c-0.1-0.6-0.1-1.2,0.1-1.7c0.2-0.5,0.4-0.8,0.7-1c1.4-0.6,2.9-1.2,4.5-1.9c1.5-0.7,3-1.4,4.5-2.2
				c1.5-0.8,2.8-1.6,4-2.5c1.2-0.9,2.1-1.9,2.9-2.9c-1-0.3-1.8-0.6-2.5-0.9c-0.7-0.3-1.4-0.6-2.1-0.8l-9.1-3.4
				c-1.2-0.5-2.2-1.2-3.1-2.1c-0.9-0.9-1.7-1.9-2.3-2.9c-1-1.5-0.7-2.8,0.9-3.7c1.3-0.8,2.8-1.4,4.5-1.7c15.2-2.9,30.1-5.3,44.9-7.1
				c14.7-1.8,29.5-3.4,44.4-4.6c1.5-0.3,2.6-0.3,3.3,0.1c0.7,0.4,1.3,1.2,1.8,2.3c0.1,0.6,0.3,1.2,0.5,1.8c0.2,0.5,0.4,1.1,0.5,1.8
				c0.2,0.7,0.2,1.3,0,1.7c-0.2,0.4-0.6,0.7-1,1c-0.5,0.2-1,0.4-1.5,0.4c-0.6,0.1-1.1,0.1-1.6,0.1c-3.1,0.1-6.4,0.2-10,0.2
				c-3.6,0-7.1,0.2-10.6,0.4c-3.5,0.2-6.7,0.6-9.7,1.1c-3,0.5-5.4,1.4-7.3,2.5c-4.1,3.7-8,7.5-11.9,11.5
				C729.2,622.6,725.9,626.8,723.2,631.4z M699,631.9c1.3,0,2.5,0,3.8,0.1c1.2,0.1,2.4,0,3.5-0.1c1.1-0.1,2.1-0.4,3-0.8
				c0.9-0.4,1.8-1.1,2.6-2.1c3.2-4.4,6.7-8.5,10.4-12.4c3.7-3.9,7.6-7.7,11.7-11.4c-2.1,0.1-4.5,0.2-7.2,0.4
				c-2.7,0.2-5.5,0.5-8.3,0.9c-2.9,0.4-5.7,0.7-8.6,1.2c-2.9,0.4-5.5,0.9-7.9,1.3c-2.4,0.5-4.5,0.9-6.2,1.4
				c-1.7,0.5-2.9,0.8-3.6,1.2c1,0.7,2,1.2,3.1,1.4c1.2,0.5,2.3,1,3.5,1.4c1.2,0.4,2.3,0.8,3.5,1.4c0.9,0.5,1.8,0.9,2.6,1.4
				c0.8,0.5,1.5,1,2,1.7c1.3,1.4,2.1,2.7,2.4,3.7c0.3,1.1,0,2.1-0.7,3c-0.5,0.6-1,1.2-1.8,1.7c-0.7,0.6-1.6,1.1-2.5,1.7
				c-0.9,0.5-1.8,1.1-2.7,1.6C700.6,631,699.8,631.5,699,631.9z"/>
			<path d="M780.7,659.8c-1.5,1.4-2.7,2.4-3.5,3.2c-0.9,0.8-1.6,1.4-2.1,1.8c-0.5,0.4-1,0.7-1.2,0.9c-0.3,0.2-0.5,0.3-0.7,0.3
				c-1.2,0.4-2.3,0.4-3.4,0c-1.1-0.4-2-1-2.7-2c-0.7-1-1.2-2.2-1.5-3.7c-0.3-1.5-0.2-3.2,0.2-5.2l-3.8,3.7c-1.4,1.4-3.1,2.3-4.9,2.7
				c-1.9,0.4-3.6,0.3-5.3-0.1c-1.7-0.5-3.2-1.4-4.5-2.7c-1.3-1.3-2.1-2.9-2.3-4.8c-0.2-2.2,0.2-4.5,1.1-6.9c0.9-2.4,2.1-4.7,3.5-6.9
				c1.5-2.2,3.1-4.3,4.8-6.2c1.8-1.9,3.4-3.4,4.9-4.6c1.5-1.2,3-2.1,4.4-2.7c1.4-0.6,2.7-0.9,4-0.9c1.3,0,2.6,0.2,3.9,0.8
				c1.3,0.5,2.7,1.3,4.2,2.3c0.9-0.5,1.8-1.1,2.7-1.8c0.9-0.7,1.8-1.1,2.7-1.2c0.9,0,1.8,0.3,2.7,1c0.9,0.7,1.9,1.3,2.9,1.8
				c-1.1,2.5-2.2,4.9-3.4,7.4c-1.2,2.5-2.3,4.9-3.4,7.5c-1.1,2.5-2,5.1-2.9,7.6c-0.8,2.6-1.4,5.2-1.7,7.8c3.4-2.5,6.5-5.3,9.2-8.3
				c2.7-3,5.4-6.2,7.9-9.6l3,1.4c-2.1,3.3-4.4,6.4-6.8,9.2C786.1,654.4,783.5,657.2,780.7,659.8z M774,631.6c-0.5-0.8-1-1.1-1.6-1.1
				c-0.6,0.1-1.2,0.3-1.7,0.6c-4.1,2.7-7.6,6.1-10.3,10c-2.7,4-4.6,8.2-5.6,12.7c1.4-0.6,3.1-1.8,4.9-3.5c1.9-1.7,3.7-3.6,5.6-5.7
				c1.8-2.1,3.5-4.4,5.1-6.7C772,635.7,773.2,633.6,774,631.6z"/>
			<path d="M850.2,644.4c-2.1,1.9-4.1,3.8-6.2,5.7c-2.1,1.8-4.2,3.7-6.3,5.6c-1.1,0.8-2.2,1.1-3.3,0.9c-1.1-0.2-2.3-0.8-3.6-1.6
				c-1.3-0.8-2-1.6-2.1-2.6c-0.1-1-0.2-1.9-0.2-2.8c0.1-1.7,0.2-3.3,0.4-4.9c0.2-1.6,0.4-3.3,0.5-4.9c0.2-2.7-0.1-4.1-1-4.3
				c-0.9-0.1-2.3,0.5-4.4,1.9c-4.1,3-8.1,6.2-11.8,9.5c-3.7,3.3-7.1,7-10.1,11.1c-0.7,0.9-1.3,1.6-1.7,2.1c-0.4,0.5-0.9,0.8-1.4,0.8
				c-0.5,0.1-1.1-0.1-1.8-0.4c-0.7-0.3-1.8-0.8-3-1.5c-0.5-0.3-1-0.5-1.4-0.7c-0.4-0.2-0.9-0.5-1.3-0.8c-1.5-0.8-2.3-2.1-2.3-3.7
				c0.5-5.4,1.7-10.5,3.8-15.3c2.1-4.9,5.2-9.1,9.4-12.5c0.9-0.8,1.9-1.2,2.9-1.2c1,0,2,0.3,3,0.7c1,0.5,1.9,1,2.8,1.6
				c0.9,0.6,1.7,1.2,2.4,1.6c-1.5,1.3-3,2.9-4.4,4.8c-1.5,1.9-2.8,3.9-4.1,5.9c-1.3,2-2.4,4-3.4,6c-1,2-1.8,3.6-2.4,5
				c1.8-1.6,3.8-3.4,6-5.2c2.2-1.9,4.4-3.7,6.7-5.4c2.3-1.7,4.5-3.3,6.6-4.7c2.1-1.5,4-2.6,5.7-3.4c1.1-0.5,2.2-0.7,3.3-0.4
				c1.1,0.2,2.3,0.7,3.5,1.4c2.8,1.7,4.2,3.9,4.3,6.5c-0.1,2.2-0.2,4.3-0.5,6.3c-0.3,2-0.1,4,0.5,5.9c2.3-1.7,4.4-3.4,6.5-5.1
				c2.1-1.7,4.1-3.5,6.2-5.4L850.2,644.4z"/>
			<path d="M878.8,643.4c-1,0.3-2.3,0.5-3.9,0.5c-1.5,0-3.1,0-4.7-0.1c-1.6-0.1-3.1-0.3-4.5-0.5c-1.4-0.2-2.5-0.4-3.3-0.6
				c1.2,4,1.8,8.2,1.9,12.7c0.1,4.5-0.3,8.9-1.3,13.2c-0.9,4.3-2.4,8.4-4.4,12.2c-2,3.8-4.4,7.1-7.4,9.7c-0.8,0.8-1.8,1.2-2.8,1.4
				c-1,0.2-2,0-3-0.5l-3.3-1.3c-2.1-1-3.5-2.6-4.1-4.9c-0.8-3.5-0.9-7.1-0.3-10.9c0.6-3.8,1.5-7.6,2.7-11.4
				c1.2-3.8,2.6-7.5,4.1-11.1c1.5-3.6,2.7-6.9,3.8-10l-2.6-2.2c0.3-0.6,0.6-1,0.9-1.1c0.4-0.2,0.7-0.3,1.2-0.3
				c0.4-0.1,0.8-0.1,1.3-0.1c0.4,0,0.8-0.1,1.2-0.4c3.7-7.2,7.5-13.8,11.3-19.8c3.8-6,8.1-11.3,13.1-15.9c1-0.8,2-1.3,2.9-1.5
				c0.9-0.1,1.7,0,2.5,0.3c0.8,0.4,1.5,0.9,2.2,1.5c0.7,0.6,1.4,1.3,2.1,2c-0.9,1-1.8,1.9-2.6,2.7c-0.8,0.8-1.6,1.7-2.3,2.6
				c-3.1,4.1-6.1,8.5-8.9,13c-2.8,4.5-5.6,9.7-8.4,15.4c1.3,0.2,2.7,0.4,4.1,0.7c1.5,0.3,2.9,0.5,4.5,0.7c1.5,0.2,3,0.3,4.5,0.3
				c1.5,0,2.9-0.2,4.3-0.6L878.8,643.4z M847.5,677.5c-0.2,0.7-0.4,1.6-0.5,2.6c-0.2,1-0.3,1.9-0.3,2.8c-0.1,0.8,0,1.5,0.1,2
				c0.2,0.5,0.5,0.6,1,0.4c1.6-0.8,3.1-2.1,4.5-3.9c1.4-1.8,2.5-3.9,3.6-6.2c1-2.3,1.9-4.9,2.6-7.6c0.7-2.7,1.2-5.5,1.5-8.2
				c0.3-2.7,0.4-5.3,0.2-7.7c-0.2-2.5-0.6-4.6-1.3-6.5c-2.5,5.2-4.6,10.5-6.5,15.8C850.4,666.3,848.8,671.8,847.5,677.5z"/>
			<path d="M909.4,659.8c-1.5,1.4-2.7,2.4-3.5,3.2c-0.9,0.8-1.6,1.4-2.1,1.8c-0.5,0.4-1,0.7-1.2,0.9c-0.3,0.2-0.5,0.3-0.7,0.3
				c-1.2,0.4-2.3,0.4-3.4,0c-1.1-0.4-2-1-2.7-2c-0.7-1-1.2-2.2-1.5-3.7c-0.3-1.5-0.2-3.2,0.2-5.2l-3.8,3.7c-1.4,1.4-3.1,2.3-4.9,2.7
				c-1.9,0.4-3.6,0.3-5.3-0.1c-1.7-0.5-3.2-1.4-4.5-2.7c-1.3-1.3-2.1-2.9-2.3-4.8c-0.2-2.2,0.2-4.5,1.1-6.9c0.9-2.4,2.1-4.7,3.5-6.9
				c1.5-2.2,3.1-4.3,4.8-6.2c1.8-1.9,3.4-3.4,4.9-4.6c1.5-1.2,3-2.1,4.4-2.7c1.4-0.6,2.7-0.9,4-0.9c1.3,0,2.6,0.2,3.9,0.8
				c1.3,0.5,2.7,1.3,4.2,2.3c0.9-0.5,1.8-1.1,2.7-1.8c0.9-0.7,1.8-1.1,2.7-1.2c0.9,0,1.8,0.3,2.7,1c0.9,0.7,1.9,1.3,2.9,1.8
				c-1.1,2.5-2.2,4.9-3.4,7.4c-1.2,2.5-2.3,4.9-3.4,7.5c-1.1,2.5-2,5.1-2.9,7.6c-0.8,2.6-1.4,5.2-1.7,7.8c3.4-2.5,6.5-5.3,9.2-8.3
				c2.7-3,5.4-6.2,7.9-9.6l3,1.4c-2.1,3.3-4.4,6.4-6.8,9.2C914.8,654.4,912.2,657.2,909.4,659.8z M902.8,631.6
				c-0.5-0.8-1-1.1-1.6-1.1c-0.6,0.1-1.2,0.3-1.7,0.6c-4.1,2.7-7.6,6.1-10.3,10c-2.7,4-4.6,8.2-5.6,12.7c1.4-0.6,3.1-1.8,4.9-3.5
				c1.9-1.7,3.7-3.6,5.6-5.7c1.8-2.1,3.5-4.4,5.1-6.7C900.7,635.7,901.9,633.6,902.8,631.6z"/>
			<path d="M969.4,643.9c-1.5,1.2-3,2.5-4.5,3.8c-1.5,1.3-3,2.5-4.5,3.6c-1.5,1.1-3,2-4.3,2.8c-1.4,0.8-2.6,1.3-3.7,1.5
				c-1.2,0.2-2.2,0.1-3.2-0.2c-1-0.3-1.8-0.8-2.4-1.5c-0.6-0.7-1-1.5-1.1-2.5c-0.2-1,0-2,0.5-3.1c0.7-1.7,1.5-3.4,2.4-5
				c0.9-1.6,1.8-3.1,2.7-4.7c0.9-1.5,1.7-3.1,2.5-4.6c0.8-1.5,1.4-3.2,1.9-4.8c-3.8,1.5-7.4,3.6-10.8,6.2c-3.4,2.6-6.5,5.6-9.4,8.8
				s-5.4,6.7-7.7,10.4c-2.3,3.7-4.1,7.3-5.6,10.9c-0.9-0.1-1.8-0.3-2.8-0.8c-0.9-0.5-1.8-1.1-2.5-1.9c-0.7-0.8-1.2-1.7-1.5-2.7
				c-0.3-1-0.3-2.2,0-3.5c0.6-2.8,1.4-5.7,2.3-8.5c0.9-2.8,2-5.6,3.1-8.3c1.2-2.7,2.6-5.3,4.1-7.7c1.5-2.4,3.4-4.6,5.4-6.5
				c0.8-0.8,1.6-1.3,2.4-1.5c0.7-0.2,1.5-0.1,2.2,0.2c0.7,0.3,1.5,0.7,2.1,1.3c0.7,0.5,1.4,1.1,2.1,1.8l-5.3,9
				c2.9-2.1,5.8-4.3,8.6-6.5c2.8-2.2,6-4,9.4-5.4c1.9-0.8,3.6-1,5.1-0.6c1.5,0.4,2.9,1.2,4.2,2.5c0.6,0.6,1.1,1.3,1.4,2
				c0.3,0.7,0.2,1.5-0.2,2.4c-1.6,3.9-3.6,7.6-5.9,10.8c-2.3,3.3-4.5,6.6-6.6,10.1c-0.2,0.8,0.2,0.9,1.2,0.5c1-0.5,2.3-1.3,4-2.4
				c1.7-1.2,3.6-2.5,5.7-4.2c2.1-1.6,4.1-3.2,6.1-4.7L969.4,643.9z"/>
			<path d="M964.3,650.8c0.3-4.8,1.5-9.3,3.4-13.3c2-4,5-7.5,9-10.4c1.5-1.2,3.1-1.8,4.6-2c1.5-0.2,3,0,4.5,0.5
				c1.5,0.5,2.9,1.2,4.2,2.1c1.3,0.9,2.6,1.9,3.7,3c2.6,2.4,2.9,5,0.8,7.8c-2.9,3.9-6.6,6.6-11.1,8.1c-1.7,0.6-3.4,0.7-5,0.1
				c-1.6-0.5-3.2-1.1-4.6-1.7c-0.4,0.8-0.8,1.7-1.3,2.9c-0.5,1.2-0.9,2.3-1.2,3.5c-0.3,1.2-0.4,2.3-0.4,3.4c0,1.1,0.3,1.9,0.9,2.5
				c3.2-0.8,6.6-1.9,10.1-3.5c3.5-1.5,7-3.4,10.4-5.6c3.4-2.2,6.7-4.6,9.8-7.3c3.2-2.7,6-5.5,8.5-8.5c2.5-3,4.6-6.1,6.2-9.3
				c1.7-3.2,2.7-6.5,3.2-9.8c0.1-1,0.5-1.7,1-2.1c0.5-0.4,1.6-0.2,3.2,0.6c2.5,1.9,4,3.8,4.5,5.7c0.5,1.9,0.5,3.8-0.1,5.9
				c-1.3,4.2-3.4,8.1-6.2,11.7c-2.8,3.6-6.1,6.8-9.8,9.7c-3.7,2.9-7.6,5.4-11.8,7.6c-4.2,2.1-8.1,3.8-12,5.1
				c-2.1,0.7-4.4,1.4-6.8,1.9c-2.4,0.6-4.8,0.9-7.1,1.1c-1.5,0.1-2.9-0.1-4.2-0.6c-1.3-0.5-2.4-1.2-3.4-2.1c-1-0.9-1.7-2-2.3-3.2
				C964.5,653.6,964.3,652.2,964.3,650.8z M987.3,631c-0.9,0.3-1.9,0.9-3,1.7c-1.1,0.8-2.2,1.8-3.3,2.9c-1.1,1.1-2.1,2.1-3,3.2
				c-0.9,1.1-1.6,2-2,2.9c1.2,0.1,2.4-0.1,3.6-0.7c1.3-0.6,2.4-1.4,3.5-2.3c1.1-1,2-2.1,2.8-3.4C986.7,633.9,987.1,632.5,987.3,631z
				"/>
		</g>
		<g>
			<path d="M698.5,724c-1,0-1.9-0.2-2.6-0.7c-0.7-0.5-1.3-1.2-1.6-2.1c-0.4-0.9-0.6-1.8-0.7-2.8c-0.1-1,0.1-2,0.4-2.9
				c1.5-4.8,3.5-9.5,5.9-13.9c2.4-4.5,5.5-8.6,9.1-12.3c-3.1,1.3-6,2.9-8.8,4.6c-2.8,1.7-5.4,3.7-7.8,5.9c-0.3,0.3-0.8,0.8-1.3,1.3
				c-0.6,0.5-1,1-1.5,1.6c-0.4,0.6-0.7,1.1-0.9,1.6c-0.2,0.6,0,1,0.4,1.5c-1.5-0.4-2.5-1-2.9-1.7c-0.4-0.7-0.5-1.5-0.2-2.4
				c0.3-0.9,0.9-1.8,1.7-2.7c0.9-0.9,1.8-1.9,2.8-2.7c1-0.9,2-1.7,3-2.4c1-0.7,1.8-1.2,2.3-1.6c2.5-1.7,5.1-3.2,7.8-4.7
				c2.7-1.4,5.4-2.7,8.2-3.8c2.8-1.1,5.7-2,8.7-2.7c3-0.7,6-1.1,9.1-1.2c0.9-0.1,1.7,0.1,2.5,0.6c0.8,0.5,1.5,1.2,2,2
				c0.5,0.8,0.8,1.7,0.8,2.6c0,0.9-0.3,1.7-1,2.4c-1.3,1.6-2.7,3-4.3,4.3c-1.6,1.3-3.1,2.5-4.7,3.8c-1.6,1.2-3.2,2.4-4.9,3.6
				c-1.6,1.2-3.2,2.5-4.6,3.9c0.6,0,1.1-0.1,1.5-0.1c0.4-0.1,0.8-0.1,1.2-0.1s0.8-0.1,1.3-0.1c0.4,0,1,0,1.6,0c1.2,0,2.1,0.3,2.7,1
				c0.6,0.7,1.2,1.4,1.7,2.2c0.3,0.5,0.3,0.9,0.1,1.3c-0.2,0.4-0.4,0.9-0.8,1.3c-0.4,0.4-0.8,0.8-1.3,1.1c-0.5,0.3-0.8,0.6-1.1,0.7
				c-3.7,1.7-7.2,3.3-10.7,4.6c-3.4,1.3-6.9,2.6-10.4,3.8c-2.1,0.6-3,2-2.7,4.1c0,0.2,0.1,0.4,0.1,0.6s0,0.4,0,0.6L698.5,724z
				 M721.2,705.7c-1.9-0.1-3.7,0-5.5,0.3c-1.8,0.3-3.6,0.8-5.3,1.4c-0.9,0.3-1.7,0.5-2.1,0.5c-0.5,0-0.8-0.2-1.1-0.4
				c-0.3-0.2-0.5-0.4-0.7-0.7c-0.2-0.2-0.5-0.3-0.9-0.3c-0.6,1.2-1.3,2.4-2,3.7c-0.7,1.3-1.3,2.6-1.7,3.9c1.7-0.8,3.4-1.4,5.1-2.1
				c1.7-0.6,3.4-1.3,5-1.9s3.3-1.3,4.8-2C718.4,707.5,719.8,706.7,721.2,705.7z M730.9,683.6c-1.2-0.1-2.7,0-4.4,0.2s-3.5,0.6-5.3,1
				c-1.8,0.4-3.7,1-5.5,1.6c-1.8,0.6-3.4,1.3-4.8,2c0.5,0.4,1,0.8,1.5,1.1c0.5,0.3,0.9,0.7,1.2,1s0.4,0.7,0.5,1.1
				c0,0.4-0.2,1-0.6,1.6c-0.8,1.3-1.5,2.5-2.2,3.8c-0.7,1.2-1.5,2.4-2.2,3.7c-0.2,0.2-0.3,0.4-0.4,0.7c-0.1,0.2-0.1,0.4-0.2,0.6
				c3.7-3,7.4-6,11.2-8.9C723.4,690.2,727.2,687,730.9,683.6z"/>
			<path d="M749.1,706.5c-0.6,0.3-1.3,0.6-1.9,0.9c-0.6,0.3-1.2,0.6-1.9,0.8c-0.5,0.2-1,0.4-1.5,0.7c-0.4,0.3-0.8,0.8-1.1,1.4
				c-1.3,2.6-3.1,4.8-5.4,6.7c-1.1,0.8-2.2,1.3-3.3,1.4c-1.1,0.1-2.3-0.2-3.6-1c-1.8-1.1-2.9-2.2-3.5-3.4c-0.5-1.2-0.5-2.8-0.1-4.8
				c0.6-2.4,1.4-4.6,2.5-6.5c1-1.9,2.4-3.7,4-5.4c0.4-0.5,1-0.8,1.6-1.1c0.7-0.3,1.4-0.5,2.1-0.6c0.7-0.1,1.4-0.2,2.2-0.1
				c0.7,0,1.4,0.2,2,0.4c1.3,0.5,2.2,1.2,2.8,2c0.6,0.8,0.9,1.7,1,2.7c0.1,1,0.1,2-0.1,3.1c-0.2,1.1-0.4,2.2-0.6,3.2
				c0.7-0.2,1.5-0.5,2.2-0.9c0.8-0.4,1.5-0.8,2.1-1.1L749.1,706.5z M731.6,715.8c1.7-0.5,3.1-1.4,4.3-2.7c1.2-1.3,2.2-2.7,3.1-4.2
				c-1.5,0-2.6-0.3-3.1-0.9c-0.6-0.5-1-1.2-1.4-2.1c-0.6,1.3-1.3,2.9-1.8,4.6C732.1,712.3,731.7,714.1,731.6,715.8z M740.3,707.1
				c0.2-0.3,0.4-0.8,0.7-1.5c0.3-0.7,0.5-1.4,0.7-2.1c0.2-0.8,0.4-1.5,0.5-2.3c0.1-0.8,0.2-1.4,0.1-2c-0.1-0.6-0.3-1-0.7-1.3
				c-0.4-0.3-0.9-0.4-1.6-0.2c0.1,0.3,0.2,0.6,0.3,0.9c0.1,0.3,0.1,0.6,0,0.8c-0.1,0.3-0.3,0.6-0.5,0.9c-0.2,0.3-0.5,0.5-0.7,0.5
				c-0.5,0.1-1,0.2-1.3,0.5c-0.3,0.2-0.6,0.5-0.9,0.8c-0.2,0.3-0.4,0.6-0.6,1c-0.2,0.4-0.4,0.7-0.6,1c0.3,0.6,0.6,1.2,0.8,1.5
				c0.2,0.4,0.5,0.7,0.8,0.9c0.3,0.2,0.7,0.4,1.1,0.4C739,707,739.6,707.1,740.3,707.1z"/>
			<path d="M776.7,706.8c-0.9,0.7-1.8,1.5-2.6,2.2c-0.9,0.8-1.8,1.5-2.7,2.1c-0.9,0.6-1.7,1.2-2.5,1.6s-1.5,0.7-2.2,0.9
				c-0.7,0.1-1.3,0.1-1.9-0.1s-1.1-0.5-1.4-0.9c-0.3-0.4-0.6-0.9-0.7-1.5c-0.1-0.6,0-1.2,0.3-1.8c0.4-1,0.9-2,1.4-2.9
				c0.5-0.9,1.1-1.8,1.6-2.8c0.5-0.9,1-1.8,1.5-2.7c0.5-0.9,0.8-1.9,1.1-2.8c-2.2,0.9-4.4,2.1-6.3,3.7c-2,1.5-3.8,3.3-5.5,5.2
				c-1.7,1.9-3.2,4-4.5,6.1c-1.3,2.2-2.4,4.3-3.3,6.4c-0.5,0-1.1-0.2-1.6-0.5c-0.5-0.3-1-0.7-1.5-1.1c-0.4-0.5-0.7-1-0.9-1.6
				s-0.2-1.3,0-2c0.4-1.7,0.8-3.3,1.4-5c0.5-1.7,1.1-3.3,1.8-4.9c0.7-1.6,1.5-3.1,2.4-4.5c0.9-1.4,2-2.7,3.2-3.8
				c0.5-0.5,1-0.8,1.4-0.9c0.4-0.1,0.9-0.1,1.3,0.1c0.4,0.2,0.9,0.4,1.3,0.7c0.4,0.3,0.8,0.7,1.2,1.1l-3.1,5.3
				c1.7-1.3,3.4-2.5,5-3.8s3.5-2.4,5.5-3.2c1.1-0.5,2.1-0.6,3-0.3c0.9,0.2,1.7,0.7,2.5,1.5c0.4,0.4,0.6,0.8,0.8,1.2
				c0.2,0.4,0.1,0.9-0.1,1.4c-0.9,2.3-2.1,4.4-3.5,6.4c-1.4,1.9-2.7,3.9-3.9,5.9c-0.1,0.5,0.1,0.6,0.7,0.3c0.6-0.3,1.4-0.7,2.4-1.4
				c1-0.7,2.1-1.5,3.3-2.4c1.2-0.9,2.4-1.9,3.6-2.8L776.7,706.8z"/>
			<path d="M800.6,706.2c-1.7,3.3-3.4,6.6-4.9,9.8c-1.5,3.2-3.2,6.4-5,9.5c-0.4,0.7-0.9,1.2-1.6,1.5c-0.6,0.3-1.4,0.4-2.3,0.1
				c-0.5-0.2-1-0.3-1.5-0.5c-0.5-0.2-0.9-0.4-1.3-0.7c-0.4-0.3-0.7-0.6-1-1c-0.3-0.4-0.4-0.9-0.5-1.5c-0.1-0.8-0.1-1.8,0-2.8
				c0.1-1.1,0.2-2.1,0.3-3.2c0.2-1.1,0.3-2.2,0.5-3.2c0.2-1.1,0.4-2.1,0.7-3c-0.7,0.8-1.4,1.5-2.1,2.3c-0.7,0.8-1.5,1.4-2.2,1.9
				c-0.7,0.5-1.5,0.8-2.3,0.9c-0.8,0.1-1.6-0.2-2.4-0.8c-0.9-0.8-1.4-1.8-1.5-3.1c-0.1-2.8,0.3-5.4,1.2-7.8c0.9-2.4,2.4-4.6,4.5-6.6
				c1.2-1.2,2.5-1.9,3.9-2.2c1.4-0.3,2.9,0,4.5,0.9c0.2,0.1,0.3,0.1,0.3,0.1c0,0,0.2,0,0.4-0.1c1.1-2.4,2.1-4.6,3.1-6.7
				c1-2.1,2-4.2,3-6.1c1-1.9,2.1-3.7,3.2-5.5c1.1-1.7,2.3-3.4,3.5-4.9c0.4-0.5,0.7-0.7,1-0.7c0.3,0,0.7,0.2,1.3,0.5
				c0.5,0.3,0.9,0.6,1.1,0.8s0.4,0.4,0.5,0.7c0.1,0.2,0,0.5-0.1,0.9c-0.1,0.3-0.3,0.8-0.6,1.3c-2.2,4.4-4.2,8.7-6.2,13
				c-2,4.3-3.8,8.7-5.5,13.2c-0.6,1.5-1.1,3.1-1.7,4.8c-0.6,1.7-1.1,3.5-1.7,5.2c-0.5,1.8-1,3.5-1.4,5.3c-0.4,1.7-0.8,3.4-1,5
				c-0.1,0.3,0.1,0.2,0.5-0.4c0.4-0.6,1-1.4,1.6-2.5c0.7-1.1,1.5-2.4,2.3-3.8c0.9-1.4,1.7-2.9,2.6-4.4c0.9-1.5,1.7-2.9,2.5-4.2
				c0.8-1.3,1.4-2.4,2-3.2L800.6,706.2z M778.3,713.7c4.7-3.5,7.6-8,8.8-13.5c-1.1,0.2-2.2,0.8-3.3,1.7c-1.1,0.9-2.1,2.1-2.9,3.4
				c-0.9,1.3-1.5,2.7-2,4.2C778.4,710.9,778.2,712.3,778.3,713.7z"/>
			<path d="M820.8,706.6c-2,1.9-4.1,3.6-6.2,5.3c-2.1,1.7-4.4,3.2-6.8,4.4c-2.6,1.4-5.1,1.3-7.7-0.2c-1-0.6-1.8-1.4-2.3-2.2
				c-0.6-0.8-0.8-1.8-0.7-3c0.2-2.8,0.9-5.4,2-7.8c1.2-2.4,2.9-4.4,5.3-6.1c0.9-0.7,1.8-1.1,2.7-1.2c0.9-0.1,1.8,0,2.6,0.3
				c0.9,0.3,1.7,0.7,2.5,1.3c0.8,0.6,1.5,1.1,2.2,1.7c1.6,1.4,1.7,2.9,0.5,4.6c-1.7,2.3-3.9,3.9-6.5,4.8c-1,0.4-2,0.4-3,0.1
				c-0.9-0.3-1.9-0.7-2.7-1c-0.5,0.9-0.9,1.8-1.2,2.7c-0.3,0.9-0.4,1.8-0.4,2.8c0,0.9,0.2,1.5,0.5,1.8c0.3,0.3,0.9,0.4,1.8,0.2
				c1.6-0.4,3-1,4.4-1.8c1.4-0.8,2.7-1.6,4-2.5c1.3-0.9,2.5-1.8,3.8-2.8c1.2-1,2.4-1.9,3.7-2.8L820.8,706.6z M810.5,699.2
				c-0.5,0.2-1.1,0.5-1.8,1s-1.3,1.1-1.9,1.7c-0.6,0.6-1.2,1.3-1.8,1.9c-0.5,0.6-0.9,1.2-1.2,1.7c0.7,0.1,1.4-0.1,2.1-0.4
				c0.7-0.3,1.4-0.8,2.1-1.4c0.6-0.6,1.2-1.2,1.6-2C810.2,700.9,810.5,700.1,810.5,699.2z"/>
			<path d="M837.6,716.2c-0.9,0.8-1.6,1.4-2.1,1.9c-0.5,0.5-0.9,0.8-1.3,1.1c-0.3,0.2-0.6,0.4-0.7,0.5c-0.2,0.1-0.3,0.2-0.4,0.2
				c-0.7,0.2-1.3,0.2-2,0s-1.2-0.6-1.6-1.2c-0.4-0.6-0.7-1.3-0.9-2.2c-0.2-0.9-0.1-1.9,0.1-3l-2.2,2.2c-0.8,0.8-1.8,1.4-2.9,1.6
				c-1.1,0.2-2.1,0.2-3.1-0.1c-1-0.3-1.9-0.8-2.6-1.6c-0.8-0.8-1.2-1.7-1.4-2.8c-0.1-1.3,0.1-2.6,0.6-4c0.5-1.4,1.2-2.8,2.1-4.1
				c0.9-1.3,1.8-2.5,2.8-3.6c1-1.1,2-2,2.9-2.7c0.9-0.7,1.8-1.3,2.6-1.6c0.8-0.3,1.6-0.5,2.3-0.5c0.8,0,1.5,0.1,2.3,0.5
				c0.8,0.3,1.6,0.8,2.4,1.3c0.5-0.3,1.1-0.7,1.6-1.1c0.5-0.4,1-0.6,1.6-0.7c0.5,0,1.1,0.2,1.6,0.6c0.5,0.4,1.1,0.7,1.7,1.1
				c-0.6,1.4-1.3,2.9-2,4.3c-0.7,1.4-1.4,2.9-2,4.4s-1.2,3-1.7,4.5c-0.5,1.5-0.8,3.1-1,4.6c2-1.5,3.8-3.1,5.4-4.9
				c1.6-1.8,3.1-3.7,4.7-5.6l1.8,0.8c-1.3,1.9-2.6,3.7-4,5.4S839.2,714.6,837.6,716.2z M833.7,699.6c-0.3-0.5-0.6-0.7-0.9-0.6
				c-0.4,0-0.7,0.2-1,0.3c-2.4,1.6-4.4,3.6-6,5.9c-1.6,2.3-2.7,4.8-3.3,7.5c0.8-0.4,1.8-1.1,2.9-2c1.1-1,2.2-2.1,3.3-3.4
				s2.1-2.6,3-3.9C832.5,702,833.2,700.8,833.7,699.6z"/>
			<path d="M846.9,716c1.5-0.5,3-1.3,4.6-2.4c1.6-1.1,3.1-2.4,4.6-3.8c1.5-1.4,2.8-2.8,4.1-4.2c1.3-1.4,2.3-2.6,3.1-3.6
				c0.4,0.2,0.9,0.4,1.3,0.5s0.8,0.4,1.2,0.6c0.3,0.2,0.5,0.6,0.7,0.9c0.1,0.4,0.1,0.8-0.2,1.4c-0.6,1.6-1.3,3.1-1.9,4.6
				c-0.6,1.5-0.9,3.1-1,4.9c1.2-0.5,2.3-1.2,3.5-2c1.1-0.9,2.2-1.8,3.1-2.7c0.9-0.9,1.8-1.9,2.5-2.8c0.7-0.9,1.3-1.7,1.7-2.3
				c0.2,0.2,0.5,0.4,0.8,0.7c0.3,0.3,0.6,0.5,0.9,0.7c-0.4,0.8-1,1.6-1.6,2.5c-0.7,0.9-1.4,1.8-2.1,2.7c-0.8,0.9-1.5,1.7-2.4,2.5
				c-0.8,0.8-1.6,1.4-2.2,1.9c-0.6,0.5-1.3,0.8-1.9,1c-0.6,0.2-1.3,0.1-2.1-0.3c-0.9-0.5-1.5-0.9-2-1.3c-0.5-0.4-0.8-0.9-1-1.4
				c-0.2-0.5-0.2-1.1-0.2-1.9c0.1-0.8,0.2-1.7,0.5-3c-0.8,0.8-1.6,1.6-2.4,2.4c-0.9,0.8-1.8,1.6-2.7,2.4c-0.9,0.8-1.9,1.5-2.9,2.2
				c-1,0.7-2,1.3-2.9,1.7c-1.6,0.7-3.1,0.5-4.6-0.5c-0.2-0.2-0.5-0.4-0.8-0.5c-0.3-0.1-0.5-0.3-0.7-0.5c-0.7-0.8-1.1-1.7-1.3-2.8
				c-0.2-1.1-0.1-2.3,0.1-3.6s0.6-2.6,1.1-3.9c0.5-1.3,1.1-2.6,1.8-3.8s1.4-2.3,2.1-3.4c0.7-1,1.4-1.8,2-2.4c0.9-0.8,1.8-1.1,2.8-1
				c1,0.2,1.8,0.7,2.4,1.7c0.2,0.4,0.2,0.7,0.1,1c-0.1,0.3-0.3,0.6-0.5,0.9c-0.8,1.1-1.6,2.3-2.5,3.6c-0.9,1.4-1.6,2.8-2.4,4.3
				c-0.7,1.5-1.3,3-1.8,4.4C847.3,713.3,847,714.7,846.9,716z"/>
			<path d="M903.3,706.8c-1.6,1.9-3,3.6-4.2,5.1c-1.2,1.5-2.3,2.8-3.4,4c-1.1,1.2-2.1,2.2-3.2,3.2c-1.1,1-2.4,2-3.8,3
				c-0.8,0.5-1.5,0.7-2.2,0.6c-0.7-0.1-1.5-0.3-2.3-0.7c-1-0.5-1.8-0.9-2.5-1.4s-1.1-1-1.3-1.6c-0.2-0.6-0.3-1.3-0.3-2.2
				c0.1-0.8,0.3-1.9,0.6-3.1c-0.9,0.8-1.8,1.7-2.8,2.7c-1,1-1.8,1.9-2.5,2.6c-0.5,0.5-1,0.7-1.4,0.6c-0.4-0.1-1-0.5-1.9-1.1
				c0.5-0.5,1.1-1.2,2-2c0.9-0.8,1.9-1.7,2.9-2.6c1-0.9,1.9-1.8,2.8-2.6c0.9-0.9,1.5-1.6,1.9-2.2c0.6-1.4,1.1-2.8,1.7-4.3
				c0.6-1.5,1.2-3,1.8-4.5c0.6-1.5,1.1-2.9,1.6-4.3c0.5-1.4,1-2.6,1.4-3.8c-1.6,0.6-3,1.5-4.3,2.8c-1.3,1.3-2.5,2.6-3.5,4
				c-1,1.4-1.8,2.8-2.5,4.2c-0.7,1.4-1.1,2.4-1.3,3.2c-0.1,0.3-0.3,0.5-0.6,0.5c-0.3,0-0.6-0.1-0.8-0.2c-0.8-0.4-1.4-1-1.7-1.7
				c-0.3-0.7-0.4-1.6-0.3-2.4c0.1-0.9,0.4-1.8,0.9-2.8c0.5-0.9,1.2-1.8,2-2.6c1.6-1.6,3.2-3,4.9-4.3c1.6-1.3,3.5-2.3,5.7-3
				c0.6-0.2,1.3-0.3,1.9-0.2c0.6,0,1.2,0.3,1.8,0.7c0.3,0.2,0.5,0.4,0.8,0.6c0.3,0.2,0.6,0.4,0.9,0.5c0.5,0.4,0.9,0.7,1.2,1.1
				c0.3,0.3,0.5,0.7,0.7,1c0.1,0.4,0.2,0.8,0.1,1.2c0,0.5-0.2,1-0.3,1.6c-0.3,1-0.6,2-1,3c-0.3,1-0.7,2.1-1.1,3.2
				c0.3-0.2,0.8-0.5,1.5-1c0.6-0.5,1.3-1.1,2-1.6c0.7-0.6,1.3-1.1,1.9-1.6c0.6-0.5,1-0.8,1.3-0.9c0.2-0.1,0.4-0.2,0.5-0.2
				s0.3,0,0.4,0c0.2,0,0.3,0.1,0.5,0.3c0.2,0.1,0.5,0.3,0.9,0.5c-0.5,0.3-1.1,0.7-1.9,1.4c-0.8,0.7-1.8,1.5-2.8,2.4
				c-1,0.9-2.1,1.9-3.3,3c-1.2,1.1-2.3,2.1-3.4,3.2c-0.8,1.8-1.5,3.7-2,5.5c-0.6,1.9-1,3.8-1.3,5.7c0.4,0.2,1,0,1.8-0.5
				c0.8-0.5,1.6-1.1,2.5-1.9c0.9-0.8,1.9-1.7,3-2.8c1-1.1,2.1-2.2,3.1-3.3c1-1.1,2-2.2,3-3.3c0.9-1.1,1.8-2,2.5-2.8L903.3,706.8z"/>
			<path d="M906,724.4c-0.3-0.3-0.7-0.5-1-0.7c-0.3-0.2-0.6-0.4-0.8-0.5c-0.2-0.2-0.3-0.4-0.3-0.7c0-0.3,0.1-0.7,0.3-1.2
				c1.4-3.1,3.1-6.1,5-9.1s4-5.9,6.1-8.7c2.2-2.8,4.4-5.6,6.7-8.3c2.3-2.7,4.5-5.3,6.6-7.9c0.3-0.4,0.7-0.9,1-1.5
				c0.3-0.6,0.7-1.3,1.2-2c-1.2,0.1-2.6,0.4-4.4,0.7c-1.7,0.4-3.5,0.9-5.4,1.4s-3.7,1.2-5.6,1.9c-1.8,0.7-3.5,1.4-4.8,2.2
				c-1.4,0.7-2.5,1.5-3.2,2.3c-0.8,0.8-1.1,1.5-0.8,2.2c-0.9,0.7-1.7,1-2.4,0.7c-0.7-0.2-1.4-0.7-2.1-1.2c-0.5-0.8-0.6-1.6-0.2-2.5
				c0.4-0.9,1-1.7,1.9-2.5c0.8-0.8,1.7-1.5,2.7-2.1c0.9-0.6,1.7-1.1,2.2-1.5c3-1.8,6.1-3.2,9.2-4.1c3.1-1,6.3-1.7,9.6-2.1
				c0.9-0.2,1.7-0.1,2.4,0.1c0.7,0.2,1.4,0.5,2,0.9s1.1,0.9,1.6,1.5c0.5,0.6,1,1.2,1.5,1.8c0.4,0.6,0.5,1.2,0.5,1.9
				c-0.1,0.7-0.3,1.4-0.6,2.1c-0.3,0.7-0.7,1.4-1.2,2s-0.9,1.1-1.2,1.5c-4.6,5.2-9.1,10.4-13.5,15.7c-4.4,5.3-8.5,10.9-12.3,16.7
				c-0.1,0.1-0.2,0.2-0.3,0.4C906.3,724,906.1,724.2,906,724.4z"/>
			<path d="M959.3,707.1c-1.2,1.1-2.4,2.2-3.7,3.3c-1.2,1.1-2.5,2.2-3.7,3.3c-0.6,0.5-1.3,0.7-2,0.5c-0.7-0.1-1.4-0.4-2.1-0.9
				c-0.8-0.5-1.2-1-1.3-1.5c-0.1-0.6-0.1-1.1-0.1-1.6c0-1,0.1-2,0.2-2.9c0.1-0.9,0.2-1.9,0.3-2.9c0.1-1.6-0.1-2.4-0.6-2.5
				c-0.5-0.1-1.4,0.3-2.6,1.1c-2.4,1.8-4.7,3.7-6.9,5.6c-2.2,2-4.2,4.1-5.9,6.5c-0.4,0.5-0.7,0.9-1,1.2c-0.2,0.3-0.5,0.4-0.8,0.5
				c-0.3,0-0.6,0-1.1-0.2c-0.4-0.2-1-0.5-1.8-0.9c-0.3-0.2-0.6-0.3-0.8-0.4c-0.2-0.1-0.5-0.3-0.8-0.5c-0.9-0.5-1.4-1.2-1.4-2.2
				c0.3-3.1,1-6.2,2.2-9c1.2-2.9,3.1-5.3,5.5-7.4c0.5-0.5,1.1-0.7,1.7-0.7c0.6,0,1.2,0.2,1.7,0.4c0.6,0.3,1.1,0.6,1.6,1
				c0.5,0.4,1,0.7,1.4,1c-0.9,0.8-1.7,1.7-2.6,2.8c-0.9,1.1-1.6,2.3-2.4,3.5c-0.7,1.2-1.4,2.4-2,3.5c-0.6,1.2-1.1,2.1-1.4,2.9
				c1.1-0.9,2.2-2,3.5-3.1c1.3-1.1,2.6-2.2,3.9-3.2c1.3-1,2.6-1.9,3.9-2.8c1.3-0.9,2.4-1.5,3.4-2c0.6-0.3,1.3-0.4,1.9-0.3
				c0.6,0.1,1.3,0.4,2,0.8c1.6,1,2.5,2.3,2.5,3.8c0,1.3-0.1,2.5-0.3,3.7c-0.2,1.2-0.1,2.3,0.3,3.4c1.3-1,2.6-2,3.8-3
				c1.2-1,2.4-2.1,3.6-3.2L959.3,707.1z"/>
			<path d="M959.8,716.1c-0.1,0.2-0.2,0.3-0.3,0.4c-0.1,0.1-0.2,0.3-0.2,0.5c-1.6,3.8-3.2,7.5-4.6,11.1s-2.6,7.1-3.4,10.8
				c-0.3,0.9-0.5,1.8-0.6,2.6c-0.1,0.8-0.2,1.4-0.1,1.8c0,0.3,0,0.6-0.2,0.8c-0.2,0.2-0.4,0.2-0.8,0.1c-1.3-0.3-2.1-0.9-2.7-1.6
				c-0.5-0.8-0.8-1.6-0.9-2.6c-0.1-1,0-2,0.3-3.2c0.2-1.1,0.5-2.2,0.7-3.3c0.9-3.5,1.9-7.2,3.2-11c1.3-3.8,2.7-7.6,4.3-11.3
				c1.6-3.7,3.4-7.1,5.5-10.4c2-3.2,4.2-6,6.6-8.3c2.2-2.2,4.3-1.6,6.3,1.6c-0.5,0.1-1,0.5-1.6,1.1s-1.3,1.3-1.9,2.1
				c-0.6,0.8-1.3,1.5-1.8,2.2c-0.6,0.7-1,1.3-1.4,1.7c1.1-0.5,2.2-1.1,3.2-1.6c1.1-0.5,2.1-1,3.1-1.3c1-0.4,1.9-0.6,2.8-0.8
				c0.9-0.2,1.7-0.1,2.4,0.1c0.6,0.2,1.2,0.5,1.7,1c0.5,0.5,1.1,1,1.6,1.6c0.6,0.6,0.9,1.3,1,2.1c0.1,0.7,0,1.5-0.3,2.2
				c-0.5,1-1,2-1.6,2.9c-0.6,0.9-1.3,1.8-2.1,2.5l0.5-0.2c1.4-0.8,2.9-1.6,4.5-2.6c1.6-0.9,3.3-1.8,5-2.7c1.7-0.9,3.5-1.7,5.3-2.4
				c1.8-0.7,3.6-1.3,5.4-1.8c1.8-0.4,3.5-0.7,5.3-0.7c1.7,0,3.4,0.2,5.1,0.7c1.2,0.4,2.2,1.1,2.9,1.9c0.7,0.9,1.1,2.2,1.3,4.1
				c-0.1,1.1-0.4,1.6-0.7,1.8c-0.4,0.1-0.8,0-1.4-0.2c-2-1-4.2-1.5-6.8-1.5c-2.6,0-5.2,0.3-8,0.8c-2.8,0.5-5.5,1.3-8.2,2.2
				c-2.8,0.9-5.3,1.8-7.7,2.6c-3.3,1.4-6.7,2.5-10.1,3C966.7,715.5,963.3,715.9,959.8,716.1z M977.9,699.3c-1.6-0.2-3.1,0.1-4.8,0.8
				c-1.6,0.7-3.2,1.7-4.7,3c-1.5,1.3-2.8,2.8-4.1,4.5c-1.2,1.7-2.2,3.5-2.9,5.4c1.5-0.4,2.9-0.9,4.3-1.4c1.4-0.6,2.7-1.2,4-2
				c0.7-0.5,1.6-1.1,2.6-1.8c1-0.8,1.9-1.6,2.8-2.6c0.9-0.9,1.6-1.9,2.1-2.9C977.8,701.2,978,700.2,977.9,699.3z"/>
		</g>
	</g>
	<ellipse cx="339.7" cy="249.3" rx="79.5" ry="77.9"/>
	<path d="M197.5,326.9c0,0,66,99.5,195.9,69c0,0,29.1-35,63.7-37.5l-11-2.6c0,0,75.8-35,57.6-157l7.7,13.7l-1.2,79l-25.2,54.7
		l-30.2,21.3l-39.4,28.3L391,419.1l-48.1-4.9L276.2,401l-66.4-47.3L197.5,326.9z"/>
	<path d="M294.4,306.2l98.2-16.3c29.4-16.6,41.2-35.7,41.2-35.7c-3.7,47.8-59.3,73-59.3,73c14.7,2.9,26.9,0,26.9,0
		c-67.3,21.6-110.9-16.6-110.9-16.6L294.4,306.2z"/>
	<path d="M228.5,292.7c0,0,1,13.8,9.9,21.7s16.6,7.2,16.6,7.2S238.9,312.4,228.5,292.7z"/>
	<path d="M257.6,190.2c0,0-16.6,16.3-22.4,51.1c-5.8,34.8,23.7,61,23.7,61s-18.2-25.9-16-53S244.9,212.6,257.6,190.2z"/>
	<path d="M492.9,258.2c0,0,2.4-49.8-10.7-76.6c-20-41.1-57.2-52.9-57.2-52.9s21.9,5.2,45.8,54.2C488.9,220,490.9,226.4,492.9,258.2z
		"/>
	<path d="M332.4,171.8c0,0-9-2.8-21.2-3.3c0,0,73.5-19.4,102.5,52.4L359.8,208L332.4,171.8z"/>
	<path d="M315.7,648.3"/>
	<path d="M223.2,159.2c0,0,13.7-33.4,59.1-54.2s76.9-10.6,76.9-10.6s-19.7-2.1-47,7.7c0,0,15.1-2.5,26.5-2.5c1,0,1.9,0,2.8,0.1
		C353,100.3,250.6,105.6,223.2,159.2z"/>
	<path d="M693.6,314.8c0,0.1-0.5,0.9-1.3,2.2c-6.4,10.9-34.7,57.4-34.7,57.4l51.3-61.5"/>
</g>
</svg>
